<svg width="200" height="200" viewBox="0 0 200 200" fill="none" xmlns="http://www.w3.org/2000/svg">
<path d="M109.676 92.9819C109.759 92.6436 110.24 92.6436 110.324 92.9819L111.432 97.4858C111.869 99.2629 113.305 100.62 115.104 100.957L118.918 101.672C119.281 101.74 119.281 102.26 118.918 102.328L115.104 103.042C113.305 103.38 111.869 104.737 111.432 106.514L110.324 111.018C110.24 111.356 109.759 111.356 109.676 111.018L108.568 106.514C108.131 104.737 106.695 103.38 104.896 103.042L101.081 102.328C100.719 102.26 100.719 101.74 101.081 101.672L104.896 100.957C106.695 100.62 108.131 99.2629 108.568 97.4858L109.676 92.9819Z" fill="url(#paint0_linear_1595_4354)"/>
<path d="M79.527 67.1048C79.7701 66.079 81.2299 66.079 81.473 67.1048L82.7119 72.331C84 77.7648 88.3942 81.9135 93.8931 82.8873L97.4398 83.5154C98.5406 83.7103 98.5406 85.2898 97.4398 85.4847L93.8931 86.1128C88.3942 87.0866 84 91.2353 82.7119 96.6691L81.473 101.895C81.2299 102.921 79.7701 102.921 79.527 101.895L78.2881 96.6691C77 91.2353 72.6058 87.0866 67.1069 86.1128L63.5602 85.4847C62.4594 85.2898 62.4594 83.7103 63.5602 83.5154L67.1069 82.8873C72.6058 81.9135 77 77.7648 78.2881 72.331L79.527 67.1048Z" fill="url(#paint1_linear_1595_4354)"/>
<defs>
<linearGradient id="paint0_linear_1595_4354" x1="110" y1="91.3333" x2="110" y2="112.667" gradientUnits="userSpaceOnUse">
<stop stop-color="#E45AFF"/>
<stop offset="0.22" stop-color="white"/>
<stop offset="1" stop-color="#6153BD"/>
</linearGradient>
<linearGradient id="paint1_linear_1595_4354" x1="80.5" y1="63" x2="80.5" y2="106" gradientUnits="userSpaceOnUse">
<stop stop-color="#E45AFF"/>
<stop offset="0.22" stop-color="white"/>
<stop offset="1" stop-color="#6153BD"/>
</linearGradient>
</defs>
</svg>
