<svg width="248" height="171" viewBox="0 0 248 171" fill="none" xmlns="http://www.w3.org/2000/svg">
<path d="M206.847 80.7265H238.063V39.0707" stroke="white" stroke-width="1.49968" stroke-miterlimit="10"/>
<path d="M238.063 32.3849L229.828 40.6206L238.063 48.8562L246.299 40.6206L238.063 32.3849Z" fill="black" stroke="white" stroke-width="1.49968" stroke-miterlimit="10"/>
<path d="M108.337 1.01752V30.1732C108.337 41.5339 99.1215 50.7498 87.7608 50.7498H66.0029" stroke="white" stroke-width="1.49968" stroke-miterlimit="10"/>
<path d="M115.14 7.03297L108.337 1.01752L102.02 7.03297" stroke="white" stroke-width="1.49968" stroke-miterlimit="10"/>
<path d="M9.20792 56.053V69.5669C9.20792 75.021 13.6315 79.4446 19.0857 79.4446C24.5398 79.4446 28.9634 75.021 28.9634 69.5669V54.3606C28.9634 45.4715 36.1769 38.258 45.0661 38.258H65.517V60.3426" stroke="white" stroke-width="1.49968" stroke-miterlimit="10"/>
<path d="M8.99852 43.796L1.29907 57.1255H16.698L8.99852 43.796Z" fill="black" stroke="white" stroke-width="1.49968" stroke-miterlimit="10"/>
<path d="M62.811 122.541L42.0166 70.6979H226.611L205.858 122.541H62.811Z" fill="url(#paint0_linear_1595_4523)"/>
<path d="M58.8732 67.1458H210.608C218.249 67.1458 224.449 73.3456 224.449 80.9864C224.449 88.6272 218.249 94.827 210.608 94.827H58.8732C51.3916 94.827 45.3175 88.7529 45.3175 81.2712V80.7099C45.3175 73.2283 51.3916 67.1542 58.8732 67.1542V67.1458Z" fill="black" stroke="white" stroke-width="1.49968" stroke-miterlimit="10"/>
<path d="M65.6929 102.677C77.439 102.677 86.9565 93.1596 86.9565 81.4136C86.9565 69.6675 77.439 60.15 65.6929 60.15C53.9469 60.15 44.4294 69.6675 44.4294 81.4136C44.4294 93.1596 53.9469 102.677 65.6929 102.677Z" fill="black" stroke="white" stroke-width="0.837807" stroke-miterlimit="10"/>
<path d="M65.6929 88.4009C69.5552 88.4009 72.6803 85.2759 72.6803 81.4136C72.6803 77.5513 69.5469 74.4263 65.6929 74.4263C61.839 74.4263 58.7056 77.5513 58.7056 81.4136C58.7056 85.2759 61.8307 88.4009 65.6929 88.4009Z" fill="black" stroke="white" stroke-width="1.49968" stroke-miterlimit="10"/>
<path d="M102.02 81.4135H107.089" stroke="white" stroke-width="1.49968" stroke-miterlimit="10"/>
<path d="M116.523 81.4135H189.378" stroke="white" stroke-width="1.49968" stroke-miterlimit="10"/>
<path d="M194.095 81.4135H199.164" stroke="white" stroke-width="1.49968" stroke-miterlimit="10"/>
<path d="M204.141 121.746H64.4864C58.7977 121.746 54.1898 126.354 54.1898 132.042V160.444C54.1898 166.133 58.7977 170.741 64.4864 170.741H204.141C209.829 170.741 214.437 166.133 214.437 160.444V132.042C214.437 126.354 209.829 121.746 204.141 121.746Z" fill="url(#paint1_linear_1595_4523)"/>
<path d="M108.396 154.051C107.902 154.051 107.491 153.649 107.491 153.147V139.314C107.491 138.812 107.893 138.41 108.396 138.41C108.899 138.41 109.301 138.812 109.301 139.314V153.147C109.301 153.649 108.899 154.051 108.396 154.051Z" fill="white"/>
<path d="M103.897 151.89C103.394 151.89 102.992 151.488 102.992 150.985V141.476C102.992 140.973 103.394 140.571 103.897 140.571C104.4 140.571 104.802 140.973 104.802 141.476V150.985C104.802 151.479 104.4 151.89 103.897 151.89Z" fill="white"/>
<path d="M112.895 151.89C112.392 151.89 111.99 151.488 111.99 150.985V141.476C111.99 140.973 112.392 140.571 112.895 140.571C113.398 140.571 113.8 140.973 113.8 141.476V150.985C113.8 151.479 113.398 151.89 112.895 151.89Z" fill="white"/>
<path d="M117.394 149.946C116.891 149.946 116.489 149.544 116.489 149.041V143.42C116.489 142.917 116.891 142.515 117.394 142.515C117.897 142.515 118.299 142.917 118.299 143.42V149.041C118.299 149.544 117.897 149.946 117.394 149.946Z" fill="white"/>
<path d="M189.387 154.051C188.884 154.051 188.482 153.649 188.482 153.147V139.314C188.482 138.812 188.884 138.41 189.387 138.41C189.889 138.41 190.292 138.812 190.292 139.314V153.147C190.292 153.649 189.889 154.051 189.387 154.051Z" fill="white"/>
<path d="M184.888 151.89C184.385 151.89 183.983 151.488 183.983 150.985V141.476C183.983 140.973 184.385 140.571 184.888 140.571C185.39 140.571 185.792 140.973 185.792 141.476V150.985C185.792 151.479 185.39 151.89 184.888 151.89Z" fill="white"/>
<path d="M193.886 151.89C193.392 151.89 192.981 151.488 192.981 150.985V141.476C192.981 140.973 193.383 140.571 193.886 140.571C194.389 140.571 194.791 140.973 194.791 141.476V150.985C194.791 151.479 194.389 151.89 193.886 151.89Z" fill="white"/>
<path d="M198.385 149.946C197.882 149.946 197.48 149.544 197.48 149.041V143.42C197.48 142.917 197.882 142.515 198.385 142.515C198.887 142.515 199.29 142.917 199.29 143.42V149.041C199.29 149.544 198.887 149.946 198.385 149.946Z" fill="white"/>
<path d="M121.893 151.714C121.39 151.714 120.988 151.312 120.988 150.809V141.66C120.988 141.158 121.39 140.755 121.893 140.755C122.396 140.755 122.798 141.158 122.798 141.66V150.809C122.798 151.312 122.396 151.714 121.893 151.714Z" fill="white"/>
<path d="M126.392 153.716C125.889 153.716 125.487 153.314 125.487 152.811V139.658C125.487 139.155 125.889 138.753 126.392 138.753C126.895 138.753 127.297 139.155 127.297 139.658V152.811C127.297 153.314 126.895 153.716 126.392 153.716Z" fill="white"/>
<path d="M130.891 156.112C130.397 156.112 129.986 155.71 129.986 155.208V137.27C129.986 136.767 130.389 136.365 130.891 136.365C131.394 136.365 131.796 136.767 131.796 137.27V155.208C131.796 155.702 131.394 156.112 130.891 156.112Z" fill="white"/>
<path d="M135.39 153.817C134.887 153.817 134.485 153.415 134.485 152.912V139.557C134.485 139.063 134.887 138.653 135.39 138.653C135.893 138.653 136.295 139.055 136.295 139.557V152.912C136.295 153.415 135.893 153.817 135.39 153.817Z" fill="white"/>
<path d="M139.889 151.664C139.386 151.664 138.984 151.262 138.984 150.759V141.711C138.984 141.216 139.386 140.806 139.889 140.806C140.392 140.806 140.794 141.208 140.794 141.711V150.759C140.794 151.253 140.392 151.664 139.889 151.664Z" fill="white"/>
<path d="M144.388 150.516C143.885 150.516 143.483 150.114 143.483 149.611V142.867C143.483 142.364 143.885 141.962 144.388 141.962C144.891 141.962 145.293 142.364 145.293 142.867V149.611C145.293 150.114 144.891 150.516 144.388 150.516Z" fill="white"/>
<path d="M148.887 153.959C148.385 153.959 147.982 153.557 147.982 153.054V139.407C147.982 138.904 148.385 138.502 148.887 138.502C149.39 138.502 149.792 138.904 149.792 139.407V153.054C149.792 153.557 149.39 153.959 148.887 153.959Z" fill="white"/>
<path d="M166.883 153.959C166.381 153.959 165.979 153.557 165.979 153.054V139.407C165.979 138.904 166.381 138.502 166.883 138.502C167.386 138.502 167.788 138.904 167.788 139.407V153.054C167.788 153.557 167.386 153.959 166.883 153.959Z" fill="white"/>
<path d="M153.386 156.112C152.884 156.112 152.481 155.71 152.481 155.208V137.27C152.481 136.767 152.884 136.365 153.386 136.365C153.889 136.365 154.291 136.767 154.291 137.27V155.208C154.291 155.702 153.889 156.112 153.386 156.112Z" fill="white"/>
<path d="M157.885 159.74C157.382 159.74 156.98 159.338 156.98 158.835V133.634C156.98 133.131 157.382 132.729 157.885 132.729C158.388 132.729 158.79 133.131 158.79 133.634V158.835C158.79 159.338 158.388 159.74 157.885 159.74Z" fill="white"/>
<path d="M162.384 156.112C161.89 156.112 161.479 155.71 161.479 155.208V137.27C161.479 136.767 161.882 136.365 162.384 136.365C162.887 136.365 163.289 136.767 163.289 137.27V155.208C163.289 155.702 162.887 156.112 162.384 156.112Z" fill="white"/>
<path d="M171.391 150.516C170.896 150.516 170.486 150.114 170.486 149.611V142.867C170.486 142.364 170.888 141.962 171.391 141.962C171.893 141.962 172.295 142.364 172.295 142.867V149.611C172.295 150.114 171.893 150.516 171.391 150.516Z" fill="white"/>
<path d="M180.389 150.516C179.886 150.516 179.484 150.114 179.484 149.611V142.867C179.484 142.364 179.886 141.962 180.389 141.962C180.891 141.962 181.294 142.364 181.294 142.867V149.611C181.294 150.114 180.891 150.516 180.389 150.516Z" fill="white"/>
<path d="M175.881 149.385C175.378 149.385 174.976 148.983 174.976 148.48V143.989C174.976 143.487 175.378 143.085 175.881 143.085C176.384 143.085 176.786 143.487 176.786 143.989V148.48C176.786 148.983 176.384 149.385 175.881 149.385Z" fill="white"/>
<path d="M99.3979 150.516C98.8952 150.516 98.4931 150.114 98.4931 149.611V142.867C98.4931 142.364 98.8952 141.962 99.3979 141.962C99.9006 141.962 100.303 142.364 100.303 142.867V149.611C100.303 150.114 99.9006 150.516 99.3979 150.516Z" fill="white"/>
<path d="M75.8304 159.087C82.8763 159.087 88.5986 153.373 88.5986 146.327C88.5986 139.281 82.8847 133.559 75.8304 133.559C68.776 133.559 63.0622 139.273 63.0622 146.327C63.0622 153.381 68.776 159.087 75.8304 159.087Z" stroke="white" stroke-width="1.04726" stroke-linecap="round" stroke-linejoin="round"/>
<path d="M72.454 146.109V142.389C72.454 141.417 73.5012 140.814 74.339 141.3L77.5646 143.16L80.7902 145.02C81.628 145.506 81.628 146.712 80.7902 147.198L77.5646 149.058L74.339 150.918C73.5012 151.404 72.454 150.792 72.454 149.829V146.109Z" fill="white"/>
<path d="M234.469 104.596C234.469 102.727 235.986 101.219 237.846 101.219C239.706 101.219 241.222 102.736 241.222 104.596C241.222 106.456 239.706 107.972 237.846 107.972C235.986 107.972 234.469 106.456 234.469 104.596Z" fill="url(#paint2_linear_1595_4523)"/>
<path d="M209.93 67.9333C209.93 62.7221 214.152 58.5079 219.355 58.5079C224.558 58.5079 228.781 62.7305 228.781 67.9333C228.781 73.1361 224.558 77.3586 219.355 77.3586C214.152 77.3586 209.93 73.1361 209.93 67.9333Z" fill="url(#paint3_linear_1595_4523)"/>
<path d="M14.9805 97.8429C14.9805 95.4971 16.8824 93.5869 19.2366 93.5869C21.5908 93.5869 23.4927 95.4887 23.4927 97.8429C23.4927 100.197 21.5908 102.099 19.2366 102.099C16.8824 102.099 14.9805 100.197 14.9805 97.8429Z" fill="url(#paint4_linear_1595_4523)"/>
<path d="M78.7209 13.4003C75.9226 13.4003 73.6522 15.6707 73.6522 18.469C73.6522 15.6707 71.3817 13.4003 68.5834 13.4003C71.3817 13.4003 73.6522 11.1298 73.6522 8.33154C73.6522 11.1298 75.9226 13.4003 78.7209 13.4003Z" stroke="white" stroke-width="0.837807" stroke-miterlimit="10"/>
<path d="M219.866 19.4409C217.11 19.4409 214.881 21.6779 214.881 24.4259C214.881 21.6695 212.653 19.4409 209.896 19.4409C212.653 19.4409 214.881 17.2124 214.881 14.456C214.881 17.2124 217.118 19.4409 219.866 19.4409Z" stroke="white" stroke-width="0.837807" stroke-linecap="round" stroke-linejoin="round"/>
<path d="M111.102 18.5193L105.179 29.0589C105.011 29.3605 105.053 29.7375 105.288 29.9972L113.481 38.8864C113.716 39.1461 114.093 39.2131 114.403 39.0707L125.395 34.0271C125.713 33.8846 125.898 33.5495 125.856 33.206L124.448 21.1919C124.406 20.8484 124.155 20.5719 123.812 20.4965L111.957 18.1171C111.622 18.0501 111.27 18.2093 111.102 18.5109V18.5193Z" fill="url(#paint5_linear_1595_4523)"/>
<path d="M160.792 55.8101C162.51 55.8101 163.909 54.4109 163.909 52.6934C163.909 50.9759 162.51 49.5768 160.792 49.5768C159.075 49.5768 157.676 50.9759 157.676 52.6934C157.676 54.4109 159.075 55.8101 160.792 55.8101Z" stroke="white" stroke-width="0.837807" stroke-miterlimit="10"/>
<defs>
<linearGradient id="paint0_linear_1595_4523" x1="129.517" y1="5.08919" x2="146.525" y2="237.556" gradientUnits="userSpaceOnUse">
<stop offset="0.15" stop-color="#5E5F75"/>
<stop offset="0.2" stop-color="#393947" stop-opacity="0.37"/>
<stop offset="0.26" stop-opacity="0"/>
<stop offset="0.29" stop-color="#050507" stop-opacity="0"/>
<stop offset="0.33" stop-color="#14141D" stop-opacity="0.02"/>
<stop offset="0.39" stop-color="#2C2D40" stop-opacity="0.08"/>
<stop offset="0.46" stop-color="#4F5070" stop-opacity="0.25"/>
<stop offset="0.53" stop-color="#7A7CAD" stop-opacity="0.6"/>
<stop offset="0.58" stop-color="#9EA1E1"/>
</linearGradient>
<linearGradient id="paint1_linear_1595_4523" x1="235.977" y1="93.3104" x2="-4.07972" y2="218.269" gradientUnits="userSpaceOnUse">
<stop stop-color="#0049FF"/>
<stop offset="1" stop-color="#6153BE"/>
</linearGradient>
<linearGradient id="paint2_linear_1595_4523" x1="248.327" y1="101.529" x2="210.164" y2="112.706" gradientUnits="userSpaceOnUse">
<stop offset="0.1" stop-color="#FCC4D3"/>
<stop offset="0.12" stop-color="#E6B7D5"/>
<stop offset="0.17" stop-color="#9F8DDC"/>
<stop offset="0.21" stop-color="#676CE2"/>
<stop offset="0.25" stop-color="#3E54E7"/>
<stop offset="0.28" stop-color="#2646EA"/>
<stop offset="0.3" stop-color="#1D41EB"/>
<stop offset="0.36" stop-color="#1B32C9"/>
<stop offset="0.46" stop-color="#181E99"/>
<stop offset="0.54" stop-color="#160F76"/>
<stop offset="0.61" stop-color="#150660"/>
<stop offset="0.66" stop-color="#150359"/>
<stop offset="0.8" stop-color="white" stop-opacity="0.5"/>
</linearGradient>
<linearGradient id="paint3_linear_1595_4523" x1="256.654" y1="104.026" x2="178.705" y2="28.5898" gradientUnits="userSpaceOnUse">
<stop offset="0.12" stop-color="#5E5F75"/>
<stop offset="0.2" stop-color="#393947" stop-opacity="0.37"/>
<stop offset="0.31" stop-opacity="0"/>
<stop offset="0.34" stop-color="#050507" stop-opacity="0"/>
<stop offset="0.38" stop-color="#14141D" stop-opacity="0.02"/>
<stop offset="0.44" stop-color="#2C2D40" stop-opacity="0.08"/>
<stop offset="0.5" stop-color="#4F5070" stop-opacity="0.25"/>
<stop offset="0.56" stop-color="#7A7CAD" stop-opacity="0.6"/>
<stop offset="0.61" stop-color="#9EA1E1"/>
</linearGradient>
<linearGradient id="paint4_linear_1595_4523" x1="33.6134" y1="105.098" x2="-4.68281" y2="85.7701" gradientUnits="userSpaceOnUse">
<stop offset="0.2" stop-color="#FCC4D3"/>
<stop offset="0.22" stop-color="#E6B7D5"/>
<stop offset="0.27" stop-color="#9F8DDC"/>
<stop offset="0.31" stop-color="#676CE2"/>
<stop offset="0.35" stop-color="#3E54E7"/>
<stop offset="0.38" stop-color="#2646EA"/>
<stop offset="0.39" stop-color="#1D41EB"/>
<stop offset="0.44" stop-color="#1B32C9"/>
<stop offset="0.51" stop-color="#181E99"/>
<stop offset="0.57" stop-color="#160F76"/>
<stop offset="0.62" stop-color="#150660"/>
<stop offset="0.66" stop-color="#150359"/>
<stop offset="0.8" stop-color="white" stop-opacity="0.5"/>
</linearGradient>
<linearGradient id="paint5_linear_1595_4523" x1="123.51" y1="-10.2929" x2="105.849" y2="81.3129" gradientUnits="userSpaceOnUse">
<stop offset="0.12" stop-color="#FCC4D3"/>
<stop offset="0.14" stop-color="#E6B7D5"/>
<stop offset="0.2" stop-color="#9F8DDC"/>
<stop offset="0.25" stop-color="#676CE2"/>
<stop offset="0.29" stop-color="#3E54E7"/>
<stop offset="0.32" stop-color="#2646EA"/>
<stop offset="0.34" stop-color="#1D41EB"/>
<stop offset="0.36" stop-color="#1B31C7"/>
<stop offset="0.38" stop-color="#1923A5"/>
<stop offset="0.4" stop-color="#171789"/>
<stop offset="0.42" stop-color="#160E74"/>
<stop offset="0.45" stop-color="#150764"/>
<stop offset="0.47" stop-color="#15045B"/>
<stop offset="0.51" stop-color="#150359"/>
<stop offset="0.69" stop-color="white" stop-opacity="0.5"/>
</linearGradient>
</defs>
</svg>
