<svg width="192" height="200" viewBox="0 0 192 200" fill="none" xmlns="http://www.w3.org/2000/svg">
<path d="M64.2688 137.94H23.9194V193.4H64.2688V137.94Z" fill="url(#paint0_linear_2155_1482)"/>
<path d="M88.7674 86.9038L1.25841 37.4592L0 112.854L88.7674 86.9038Z" fill="url(#paint1_linear_2155_1482)"/>
<path d="M63.9477 139.409L151.457 188.853L152.715 113.459L63.9477 139.409Z" fill="url(#paint2_linear_2155_1482)"/>
<path d="M94.3646 14.0592H24.8376V24.5723H94.3646V14.0592Z" fill="#140E2C" stroke="white" stroke-miterlimit="10"/>
<path d="M88.0378 24.9697H32.6099V105.309H88.0378V24.9697Z" fill="url(#paint3_linear_2155_1482)"/>
<path d="M42.768 92.3691V37.3173H80.3907V101.998H42.8662L42.768 92.3691Z" fill="url(#paint4_linear_2155_1482)"/>
<path d="M125.856 115.774L133.357 109.891L137.516 95.1526C139.518 88.0587 146.887 83.2799 154.999 83.8169L156.917 83.944L153.284 90.6914L141.588 112.152L125.714 117.613L125.856 115.774Z" fill="url(#paint5_linear_2155_1482)"/>
<path d="M168.527 94.2059L174.031 84.7134L170.148 84.2474C166.784 83.8435 163.348 84.3125 160.29 85.7702C156.864 87.4035 153.761 89.9487 151.427 92.7683L134.765 113.313L164.559 99.5287L168.527 94.2053V94.2059Z" fill="url(#paint6_linear_2155_1482)"/>
<path d="M130.644 78.3132C130.644 83.1623 129.644 87.7749 127.835 91.9617C126.788 94.4159 125.458 96.7162 123.885 98.8392C117.593 107.331 107.498 112.843 96.1145 112.843C77.0432 112.843 61.5851 97.3786 61.5851 78.3132C61.5851 73.5114 62.5668 68.9343 64.335 64.783C65.3107 62.4885 66.5289 60.3241 67.9541 58.3194C74.2106 49.52 84.4943 43.778 96.1145 43.778C115.186 43.778 130.644 59.2419 130.644 78.3132Z" fill="url(#paint7_linear_2155_1482)"/>
<path d="M127.835 91.9616C126.788 94.4158 125.458 96.7162 123.885 98.8391L64.3349 64.7829C65.3106 62.4884 66.5288 60.324 67.954 58.3193L127.835 91.9616Z" fill="url(#paint8_linear_2155_1482)"/>
<path d="M139.66 72.9702C139.66 77.8193 138.661 82.4319 136.851 86.6187C135.805 89.0728 134.474 91.3732 132.901 93.4962C126.609 101.988 116.515 107.5 105.131 107.5C86.0597 107.5 70.6016 92.0355 70.6016 72.9702C70.6016 68.1684 71.5833 63.5913 73.3514 59.4399C74.3272 57.1455 75.5454 54.9811 76.9705 52.9764C83.2271 44.177 93.5108 38.4349 105.131 38.4349C124.202 38.4349 139.66 53.8989 139.66 72.9702Z" fill="url(#paint9_linear_2155_1482)"/>
<path d="M191.999 94.9403L147.251 126.709C138.913 132.625 128.949 135.802 118.728 135.802H107.416L64.3863 138.904L63.9286 148.06L23.1877 146.686L23.9618 135.802C22.6259 112.71 32.6914 102.658 42.858 98.5494C53.0246 94.4477 57.5189 94.731 68.4342 95.7765C79.3429 96.8155 90.3392 98.5494 101.208 97.139C108.116 96.2348 114.835 94.0763 121.777 93.5163C128.725 92.9563 136.302 94.2857 141.159 99.2844L110.127 116.353L110.376 116.805L130.986 115.388L166.978 94.7239C171.194 92.1065 175.721 90.6151 180.14 90.6151C184.316 90.6151 188.39 91.951 192 94.9397L191.999 94.9403Z" fill="url(#paint10_linear_2155_1482)"/>
<path d="M110.126 116.353L109.545 116.673L94.7803 126.655C94.7803 126.655 107.635 126.356 119.601 116.279" fill="black"/>
<path d="M64.6814 134.999H64.0901V167.45H64.6814V134.999Z" fill="url(#paint11_linear_2155_1482)"/>
<path d="M64.3331 170.774C65.5075 170.774 66.4596 169.822 66.4596 168.648C66.4596 167.473 65.5075 166.521 64.3331 166.521C63.1586 166.521 62.2065 167.473 62.2065 168.648C62.2065 169.822 63.1586 170.774 64.3331 170.774Z" fill="#140E2C" stroke="white" stroke-miterlimit="10"/>
<path d="M29.2662 197.988C30.4407 197.988 31.3927 197.036 31.3927 195.861C31.3927 194.687 30.4407 193.735 29.2662 193.735C28.0918 193.735 27.1397 194.687 27.1397 195.861C27.1397 197.036 28.0918 197.988 29.2662 197.988Z" fill="#140E2C" stroke="white" stroke-miterlimit="10"/>
<path d="M62.4526 196.009L53.7136 183.909V140.107H54.3049V183.718L62.9316 195.662L62.4526 196.009Z" fill="url(#paint12_linear_2155_1482)"/>
<path d="M63.2854 199.509C64.627 199.509 65.7147 198.421 65.7147 197.08C65.7147 195.738 64.627 194.65 63.2854 194.65C61.9437 194.65 60.8561 195.738 60.8561 197.08C60.8561 198.421 61.9437 199.509 63.2854 199.509Z" fill="#140E2C" stroke="white" stroke-miterlimit="10"/>
<path d="M31.1385 195.057L30.6648 194.703L44.9969 175.485V139.788H45.5883V175.681L45.5297 175.76L31.1385 195.057Z" fill="url(#paint13_linear_2155_1482)"/>
<path d="M27.8666 181.976L27.3959 181.619L34.5312 172.213V137.872H35.1225V172.412L27.8666 181.976Z" fill="url(#paint14_linear_2155_1482)"/>
<path d="M24.2936 135.957H23.7022V173.62H24.2936V135.957Z" fill="url(#paint15_linear_2155_1482)"/>
<path d="M32.4022 16.2827V24.9698" stroke="white" stroke-miterlimit="10"/>
<path d="M38.3489 16.2827V24.9698" stroke="white" stroke-miterlimit="10"/>
<path d="M44.2949 16.2827V24.9698" stroke="white" stroke-miterlimit="10"/>
<path d="M50.2417 16.2827V24.9698" stroke="white" stroke-miterlimit="10"/>
<path d="M56.1885 16.2827V24.9698" stroke="white" stroke-miterlimit="10"/>
<path d="M62.1349 16.2827V24.9698" stroke="white" stroke-miterlimit="10"/>
<path d="M68.0817 16.2827V24.9698" stroke="white" stroke-miterlimit="10"/>
<path d="M74.0285 16.2827V24.9698" stroke="white" stroke-miterlimit="10"/>
<path d="M79.9744 16.2827V24.9698" stroke="white" stroke-miterlimit="10"/>
<path d="M85.9212 16.2827V24.9698" stroke="white" stroke-miterlimit="10"/>
<path d="M23.798 175.17C24.9725 175.17 25.9245 174.218 25.9245 173.044C25.9245 171.869 24.9725 170.917 23.798 170.917C22.6236 170.917 21.6715 171.869 21.6715 173.044C21.6715 174.218 22.6236 175.17 23.798 175.17Z" fill="#140E2C" stroke="white" stroke-miterlimit="10"/>
<path d="M26.2662 185.477C27.4406 185.477 28.3927 184.525 28.3927 183.35C28.3927 182.176 27.4406 181.224 26.2662 181.224C25.0917 181.224 24.1396 182.176 24.1396 183.35C24.1396 184.525 25.0917 185.477 26.2662 185.477Z" fill="#140E2C" stroke="white" stroke-miterlimit="10"/>
<path d="M97.4249 0.562028C107.245 0.156949 117.306 1.72759 127.052 5.51878C153.453 15.7901 170.551 39.646 173.46 65.9803" stroke="white" stroke-miterlimit="10"/>
<path d="M173.093 84.4284L185.66 67.7764H160.526L173.093 84.4284Z" fill="url(#paint16_linear_2155_1482)"/>
<defs>
<linearGradient id="paint0_linear_2155_1482" x1="37.216" y1="243.7" x2="53.3027" y2="61.1987" gradientUnits="userSpaceOnUse">
<stop offset="0.201" stop-color="#050507" stop-opacity="0"/>
<stop offset="0.504" stop-color="#171F9B"/>
</linearGradient>
<linearGradient id="paint1_linear_2155_1482" x1="-46.9969" y1="242.061" x2="112.972" y2="-70.6781" gradientUnits="userSpaceOnUse">
<stop offset="0.268" stop-color="#5E5F75"/>
<stop offset="0.385" stop-color="#050507" stop-opacity="0"/>
<stop offset="0.572" stop-color="#124BF1"/>
</linearGradient>
<linearGradient id="paint2_linear_2155_1482" x1="199.712" y1="-15.7481" x2="39.7428" y2="296.991" gradientUnits="userSpaceOnUse">
<stop offset="0.268" stop-color="#5E5F75"/>
<stop offset="0.385" stop-color="#050507" stop-opacity="0"/>
<stop offset="0.572" stop-color="#124BF1"/>
</linearGradient>
<linearGradient id="paint3_linear_2155_1482" x1="97.7756" y1="-1.40953" x2="-50.7945" y2="262.588" gradientUnits="userSpaceOnUse">
<stop offset="0.035" stop-color="#FCC4D3"/>
<stop offset="0.088" stop-color="#E6B7D5"/>
<stop offset="0.192" stop-color="#E54193"/>
<stop offset="0.529" stop-color="#150359"/>
<stop offset="0.69" stop-color="white" stop-opacity="0.5"/>
</linearGradient>
<linearGradient id="paint4_linear_2155_1482" x1="24.6973" y1="6.413" x2="119.038" y2="167.972" gradientUnits="userSpaceOnUse">
<stop offset="0.145" stop-color="white"/>
<stop offset="0.158" stop-color="white" stop-opacity="0.941"/>
<stop offset="0.21" stop-color="white" stop-opacity="0.723"/>
<stop offset="0.263" stop-color="white" stop-opacity="0.53"/>
<stop offset="0.317" stop-color="white" stop-opacity="0.367"/>
<stop offset="0.371" stop-color="white" stop-opacity="0.234"/>
<stop offset="0.426" stop-color="white" stop-opacity="0.131"/>
<stop offset="0.483" stop-color="white" stop-opacity="0.058"/>
<stop offset="0.541" stop-color="white" stop-opacity="0.014"/>
<stop offset="0.605" stop-color="white" stop-opacity="0"/>
</linearGradient>
<linearGradient id="paint5_linear_2155_1482" x1="132.461" y1="69.2748" x2="156.264" y2="153.961" gradientUnits="userSpaceOnUse">
<stop offset="0.12" stop-color="#FCC4D3"/>
<stop offset="0.14" stop-color="#E6B7D5"/>
<stop offset="0.2" stop-color="#9F8DDC"/>
<stop offset="0.25" stop-color="#676CE2"/>
<stop offset="0.29" stop-color="#3E54E7"/>
<stop offset="0.32" stop-color="#2646EA"/>
<stop offset="0.34" stop-color="#1D41EB"/>
<stop offset="0.36" stop-color="#1B31C7"/>
<stop offset="0.38" stop-color="#1923A5"/>
<stop offset="0.4" stop-color="#171789"/>
<stop offset="0.42" stop-color="#160E74"/>
<stop offset="0.45" stop-color="#150764"/>
<stop offset="0.47" stop-color="#15045B"/>
<stop offset="0.51" stop-color="#150359"/>
<stop offset="0.69" stop-color="white" stop-opacity="0.5"/>
</linearGradient>
<linearGradient id="paint6_linear_2155_1482" x1="144.169" y1="63.1371" x2="183.691" y2="201.759" gradientUnits="userSpaceOnUse">
<stop offset="0.12" stop-color="#FCC4D3"/>
<stop offset="0.14" stop-color="#E6B7D5"/>
<stop offset="0.2" stop-color="#9F8DDC"/>
<stop offset="0.25" stop-color="#676CE2"/>
<stop offset="0.29" stop-color="#3E54E7"/>
<stop offset="0.32" stop-color="#2646EA"/>
<stop offset="0.34" stop-color="#1D41EB"/>
<stop offset="0.36" stop-color="#1B31C7"/>
<stop offset="0.38" stop-color="#1923A5"/>
<stop offset="0.4" stop-color="#171789"/>
<stop offset="0.42" stop-color="#160E74"/>
<stop offset="0.45" stop-color="#150764"/>
<stop offset="0.47" stop-color="#15045B"/>
<stop offset="0.51" stop-color="#150359"/>
<stop offset="0.69" stop-color="white" stop-opacity="0.5"/>
</linearGradient>
<linearGradient id="paint7_linear_2155_1482" x1="-18.3989" y1="147.178" x2="324.555" y2="-59.0738" gradientUnits="userSpaceOnUse">
<stop offset="0.003" stop-color="#214CEA"/>
<stop offset="0.082" stop-color="#2561DE"/>
<stop offset="0.244" stop-color="#2F97BF"/>
<stop offset="0.374" stop-color="#39C7A5"/>
</linearGradient>
<linearGradient id="paint8_linear_2155_1482" x1="57.9843" y1="54.8599" x2="206.255" y2="146.36" gradientUnits="userSpaceOnUse">
<stop stop-color="white"/>
<stop offset="0.058" stop-color="#E9F9F5"/>
<stop offset="0.177" stop-color="#B3E9DC"/>
<stop offset="0.346" stop-color="#5CD0B4"/>
<stop offset="0.41" stop-color="#39C7A5"/>
</linearGradient>
<linearGradient id="paint9_linear_2155_1482" x1="-9.38238" y1="141.834" x2="333.571" y2="-64.4175" gradientUnits="userSpaceOnUse">
<stop offset="0.362" stop-color="#214CEA" stop-opacity="0"/>
<stop offset="0.371" stop-color="#275AE9" stop-opacity="0.087"/>
<stop offset="0.388" stop-color="#3880E8" stop-opacity="0.311"/>
<stop offset="0.413" stop-color="#54BCE5" stop-opacity="0.668"/>
<stop offset="0.434" stop-color="#6EF4E4"/>
</linearGradient>
<linearGradient id="paint10_linear_2155_1482" x1="114.002" y1="37.186" x2="91.0205" y2="320.324" gradientUnits="userSpaceOnUse">
<stop offset="0.12" stop-color="#FCC4D3"/>
<stop offset="0.14" stop-color="#E6B7D5"/>
<stop offset="0.2" stop-color="#9F8DDC"/>
<stop offset="0.25" stop-color="#676CE2"/>
<stop offset="0.29" stop-color="#3E54E7"/>
<stop offset="0.306" stop-color="#2646EA"/>
<stop offset="0.327" stop-color="#1D41EB"/>
<stop offset="0.375" stop-color="#1B31C7"/>
<stop offset="0.428" stop-color="#1923A5"/>
<stop offset="0.567" stop-color="#150359"/>
<stop offset="0.69" stop-color="white" stop-opacity="0.5"/>
</linearGradient>
<linearGradient id="paint11_linear_2155_1482" x1="62.8133" y1="179.812" x2="66.3254" y2="115.967" gradientUnits="userSpaceOnUse">
<stop offset="0.167" stop-color="white"/>
<stop offset="0.21" stop-color="#F0F2FD"/>
<stop offset="0.292" stop-color="#CBD3FA"/>
<stop offset="0.403" stop-color="#8FA0F4"/>
<stop offset="0.539" stop-color="#3C5AED"/>
<stop offset="0.582" stop-color="#2143EB"/>
</linearGradient>
<linearGradient id="paint12_linear_2155_1482" x1="55.9459" y1="212.613" x2="62.9689" y2="80.451" gradientUnits="userSpaceOnUse">
<stop offset="0.167" stop-color="white"/>
<stop offset="0.219" stop-color="#F0F2FD"/>
<stop offset="0.317" stop-color="#CBD3FA"/>
<stop offset="0.451" stop-color="#8FA0F4"/>
<stop offset="0.615" stop-color="#3C5AED"/>
<stop offset="0.667" stop-color="#2143EB"/>
</linearGradient>
<linearGradient id="paint13_linear_2155_1482" x1="37.2052" y1="195.441" x2="44.8668" y2="110.206" gradientUnits="userSpaceOnUse">
<stop offset="0.167" stop-color="white"/>
<stop offset="0.219" stop-color="#F0F2FD"/>
<stop offset="0.317" stop-color="#CBD3FA"/>
<stop offset="0.451" stop-color="#8FA0F4"/>
<stop offset="0.615" stop-color="#3C5AED"/>
<stop offset="0.667" stop-color="#2143EB"/>
</linearGradient>
<linearGradient id="paint14_linear_2155_1482" x1="27.5017" y1="195.04" x2="42.5056" y2="113.317" gradientUnits="userSpaceOnUse">
<stop offset="0.167" stop-color="white"/>
<stop offset="0.219" stop-color="#F0F2FD"/>
<stop offset="0.317" stop-color="#CBD3FA"/>
<stop offset="0.451" stop-color="#8FA0F4"/>
<stop offset="0.615" stop-color="#3C5AED"/>
<stop offset="0.667" stop-color="#2143EB"/>
</linearGradient>
<linearGradient id="paint15_linear_2155_1482" x1="18.4084" y1="196.311" x2="29.5815" y2="113.311" gradientUnits="userSpaceOnUse">
<stop offset="0.167" stop-color="white"/>
<stop offset="0.219" stop-color="#F0F2FD"/>
<stop offset="0.317" stop-color="#CBD3FA"/>
<stop offset="0.451" stop-color="#8FA0F4"/>
<stop offset="0.615" stop-color="#3C5AED"/>
<stop offset="0.667" stop-color="#2143EB"/>
</linearGradient>
<linearGradient id="paint16_linear_2155_1482" x1="193.661" y1="31.3062" x2="114.183" y2="172.23" gradientUnits="userSpaceOnUse">
<stop offset="0.035" stop-color="#FCC4D3"/>
<stop offset="0.088" stop-color="#E6B7D5"/>
<stop offset="0.192" stop-color="#E54193"/>
<stop offset="0.529" stop-color="#150359"/>
<stop offset="0.69" stop-color="white" stop-opacity="0.5"/>
</linearGradient>
</defs>
</svg>
