<svg xmlns="http://www.w3.org/2000/svg" viewBox="0 0 240 180" fill="none">
  <defs><linearGradient id="pod" gradientUnits="userSpaceOnUse" x1="79" y1="100" x2="156" y2="56"><stop offset="0" stop-color="#7C5CFC"/><stop offset="1" stop-color="#00D4AA"/></linearGradient></defs>
  <ellipse cx="120" cy="150" rx="66" ry="10" fill="#7C5CFC" opacity="0.12"/>
  <rect x="60" y="46" width="120" height="74" rx="18" stroke="#7C5CFC" stroke-width="2" opacity="0.4"/>
  <!-- equalizer waveform (rounded rects so the gradient paints) -->
  <g fill="url(#pod)">
    <rect x="79"  y="80" width="7" height="20" rx="3.5"/>
    <rect x="93"  y="66" width="7" height="34" rx="3.5"/>
    <rect x="107" y="84" width="7" height="16" rx="3.5"/>
    <rect x="121" y="58" width="7" height="42" rx="3.5"/>
    <rect x="135" y="74" width="7" height="26" rx="3.5"/>
    <rect x="149" y="82" width="7" height="18" rx="3.5"/>
  </g>
  <line x1="74" y1="106" x2="166" y2="106" stroke="#7C5CFC" stroke-width="3" stroke-linecap="round" opacity="0.35"/>
  <path d="M192 40l2.6 6.8 6.8 2.6-6.8 2.6-2.6 6.8-2.6-6.8-6.8-2.6 6.8-2.6 2.6-6.8z" fill="#00D4AA" opacity="0.9"/>
  <circle cx="50" cy="66" r="5" fill="#7C5CFC" opacity="0.7"/>
  <circle cx="198" cy="108" r="4" fill="#00D4AA" opacity="0.8"/>
</svg>
