<svg xmlns="http://www.w3.org/2000/svg" viewBox="0 0 240 180" fill="none">
  <defs><linearGradient id="min" x1="0" y1="0" x2="1" y2="1"><stop offset="0" stop-color="#7C5CFC"/><stop offset="1" stop-color="#00D4AA"/></linearGradient></defs>
  <ellipse cx="120" cy="152" rx="72" ry="10" fill="#7C5CFC" opacity="0.12"/>
  <path d="M58 44v92h124" stroke="#7C5CFC" stroke-width="2.5" opacity="0.35" stroke-linecap="round"/>
  <rect x="76" y="104" width="14" height="28" rx="4" fill="#7C5CFC" opacity="0.3"/>
  <rect x="104" y="88" width="14" height="44" rx="4" fill="#7C5CFC" opacity="0.4"/>
  <rect x="132" y="98" width="14" height="34" rx="4" fill="#7C5CFC" opacity="0.3"/>
  <rect x="160" y="72" width="14" height="60" rx="4" fill="#7C5CFC" opacity="0.45"/>
  <path d="M76 110l27-22 29 10 35-40" stroke="url(#min)" stroke-width="3.5" stroke-linecap="round" stroke-linejoin="round"/>
  <circle cx="167" cy="58" r="6" fill="#00D4AA"/>
  <path d="M182 44l2.4 6.6 6.6 2.4-6.6 2.4-2.4 6.6-2.4-6.6-6.6-2.4 6.6-2.4 2.4-6.6z" fill="#00D4AA" opacity="0.85"/>
  <circle cx="62" cy="120" r="3.5" fill="#7C5CFC" opacity="0.6"/>
</svg>
