<svg xmlns="http://www.w3.org/2000/svg" viewBox="0 0 240 180" fill="none">
  <defs><linearGradient id="mnl" x1="0" y1="0" x2="1" y2="1"><stop offset="0" stop-color="#7C5CFC"/><stop offset="1" stop-color="#00D4AA"/></linearGradient></defs>
  <ellipse cx="120" cy="152" rx="72" ry="11" fill="#7C5CFC" opacity="0.12"/>
  <rect x="64" y="90" width="112" height="52" rx="10" stroke="#7C5CFC" stroke-width="3" opacity="0.5"/>
  <path d="M64 96l56 34 56-34" stroke="#7C5CFC" stroke-width="3" opacity="0.5" stroke-linecap="round" stroke-linejoin="round"/>
  <rect x="86" y="38" width="68" height="60" rx="8" fill="url(#mnl)" opacity="0.16"/>
  <rect x="86" y="38" width="68" height="60" rx="8" stroke="url(#mnl)" stroke-width="3" stroke-linejoin="round"/>
  <line x1="100" y1="56" x2="140" y2="56" stroke="#7C5CFC" stroke-width="3" opacity="0.55" stroke-linecap="round"/>
  <line x1="100" y1="70" x2="140" y2="70" stroke="#7C5CFC" stroke-width="3" opacity="0.4" stroke-linecap="round"/>
  <line x1="100" y1="84" x2="126" y2="84" stroke="#7C5CFC" stroke-width="3" opacity="0.3" stroke-linecap="round"/>
  <path d="M182 44l2.6 7 7 2.6-7 2.6-2.6 7-2.6-7-7-2.6 7-2.6 2.6-7z" fill="#00D4AA" opacity="0.9"/>
  <circle cx="58" cy="66" r="4" fill="#7C5CFC" opacity="0.6"/>
</svg>
