<svg width="443" height="327" viewBox="0 0 443 327" fill="none" xmlns="http://www.w3.org/2000/svg">
<path d="M227.502 307.136C346.435 307.136 442.849 238.381 442.849 153.568C442.849 68.7548 346.435 0 227.502 0C108.569 0 12.1553 68.7548 12.1553 153.568C12.1553 238.381 108.569 307.136 227.502 307.136Z" fill="url(#paint0_linear_1942_749)"/>
<path d="M227.502 278.984C317.507 278.984 390.471 226.952 390.471 162.768C390.471 98.583 317.507 46.551 227.502 46.551C137.497 46.551 64.5337 98.583 64.5337 162.768C64.5337 226.952 137.497 278.984 227.502 278.984Z" fill="url(#paint1_linear_1942_749)"/>
<path d="M248.952 127.559L223.642 135.569C220.594 134.195 219.045 130.533 219.322 127.2C219.607 123.868 221.376 120.842 223.452 118.218C225.527 115.594 227.947 113.241 229.862 110.493C231.703 107.847 233.085 104.69 232.865 101.481L233.311 101.51C241.789 102.051 248.455 108.965 248.682 117.458L248.952 127.559Z" fill="url(#paint2_linear_1942_749)" stroke="white" stroke-miterlimit="10"/>
<path d="M363.795 198.198L339.734 153.095C331.899 138.398 318.626 127.339 302.752 122.282L289.603 118.094L248.524 122.832L227.414 130.82C205.381 138.999 188.905 157.663 183.522 180.54L166.483 252.957C162.568 269.594 175.191 285.531 192.281 285.531H237.123L318.716 236.705L363.795 198.198Z" fill="url(#paint3_linear_1942_749)" stroke="white" stroke-miterlimit="10"/>
<path d="M395.116 209.58L415.513 190.138L392.133 174.481" stroke="white" stroke-miterlimit="10"/>
<path d="M392.133 217.789C395.5 217.789 398.229 215.06 398.229 211.693C398.229 208.326 395.5 205.597 392.133 205.597C388.766 205.597 386.037 208.326 386.037 211.693C386.037 215.06 388.766 217.789 392.133 217.789Z" fill="#140E2C" stroke="white" stroke-miterlimit="10"/>
<path d="M387.835 188.884C395.789 188.884 402.237 182.436 402.237 174.481C402.237 166.527 395.789 160.079 387.835 160.079C379.88 160.079 373.432 166.527 373.432 174.481C373.432 182.436 379.88 188.884 387.835 188.884Z" fill="#140E2C" stroke="white" stroke-miterlimit="10"/>
<path d="M416.315 196.522C419.751 196.522 422.537 193.736 422.537 190.299C422.537 186.862 419.751 184.076 416.315 184.076C412.878 184.076 410.092 186.862 410.092 190.299C410.092 193.736 412.878 196.522 416.315 196.522Z" fill="#140E2C" stroke="white" stroke-miterlimit="10"/>
<path d="M114.984 131.43L114.983 131.429C113.32 127.376 108.687 125.438 104.634 127.101L82.8374 136.044C78.7844 137.707 76.8469 142.341 78.5098 146.394L78.5101 146.394C80.173 150.447 84.8066 152.385 88.8595 150.722L110.656 141.779C114.709 140.116 116.647 135.483 114.984 131.43Z" fill="url(#paint4_linear_1942_749)"/>
<path d="M110.657 141.78L99.7573 146.253L93.7341 131.573L104.634 127.101C108.684 125.439 113.319 127.377 114.981 131.427C115.813 133.455 115.747 135.624 114.961 137.502C114.182 139.378 112.686 140.948 110.657 141.78V141.78Z" fill="url(#paint5_linear_1942_749)"/>
<path d="M220.446 84.4352H217.673C210.892 84.4352 205.394 78.9376 205.394 72.1565V65.423C205.394 60.0971 208.785 55.5634 213.524 53.8627L226.897 53.3467L220.446 84.4352Z" fill="black" stroke="white" stroke-miterlimit="10"/>
<path d="M281.527 87.353V128.275C281.527 138.726 273.056 147.205 262.605 147.205H249.486L248.952 127.559L248.682 117.458C248.455 108.965 241.789 102.051 233.311 101.51L232.865 101.481L227.464 101.137C223.211 100.867 219.936 97.2857 220.061 93.0247C220.287 85.0142 220.682 73.4152 221.069 72.2385L213.709 69.3808L220.382 58.2715L220.843 57.5041C220.843 57.5041 217.115 40.7231 231.36 30.3228C231.046 34.7811 232.785 39.5172 235.343 43.3177C241.395 52.3148 251.971 58.0888 262.802 58.3226L281.527 87.353Z" fill="black" stroke="white" stroke-miterlimit="10"/>
<path d="M232.727 29.3799C232.252 29.6869 231.798 30.0011 231.36 30.3227" stroke="white" stroke-miterlimit="10"/>
<path d="M301.173 78.9187C301.173 78.3852 301.173 77.8516 301.166 77.3108" stroke="white" stroke-miterlimit="10"/>
<path d="M232.844 25.0823C231.952 26.7268 231.484 28.5028 231.36 30.3227C217.115 40.7231 220.843 57.504 220.843 57.504L220.382 58.2714C216.633 55.8814 212.839 53.433 209.989 50.1148C207.102 46.7601 205.275 42.3164 206.181 38.0773C207.153 33.5385 211.1 29.9938 215.544 28.0935C219.98 26.1932 224.921 25.6743 229.759 25.1773C230.782 25.075 231.798 24.9654 232.822 24.863L232.844 25.0823Z" fill="url(#paint6_linear_1942_749)" stroke="white" stroke-miterlimit="10"/>
<path d="M220.499 58.3448C220.463 58.3227 220.419 58.2933 220.382 58.2712" stroke="white" stroke-miterlimit="10"/>
<path d="M327.09 127.99C321.725 136.395 312.027 141.153 302.788 139.91C293.55 138.661 285.174 131.469 281.79 121.88H281.527V87.353L262.802 58.3226C251.971 58.0887 241.395 52.3148 235.343 43.3177C232.785 39.5171 231.046 34.781 231.36 30.3227C231.484 28.5028 231.952 26.7268 232.844 25.0823L232.822 24.8631C241.987 23.9421 251.218 23.1967 260.354 24.2126C270.513 25.3381 280.694 28.839 287.908 35.7312C298.944 46.2704 301.034 62.357 301.166 77.3107C312.524 80.9871 323.896 87.1264 329.107 98.6743C333.259 107.883 332.455 119.585 327.09 127.99Z" fill="url(#paint7_linear_1942_749)" stroke="white" stroke-miterlimit="10"/>
<path d="M277.483 87.2074C287.983 87.2074 296.495 78.6954 296.495 68.1952C296.495 57.695 287.983 49.1829 277.483 49.1829C266.982 49.1829 258.47 57.695 258.47 68.1952C258.47 78.6954 266.982 87.2074 277.483 87.2074Z" fill="black" stroke="white" stroke-miterlimit="10"/>
<path d="M225.595 23.8332L226.238 23.0183C229.584 18.7799 234.686 16.3074 240.086 16.3074H256.769C268.029 16.3074 277.195 25.3637 277.331 36.6235L277.483 49.1829" stroke="white" stroke-miterlimit="10"/>
<path d="M258.782 239.711C258.775 239.448 258.768 239.185 258.76 238.929" stroke="white" stroke-miterlimit="10"/>
<path d="M258.643 233.813C258.673 235.494 258.709 237.197 258.76 238.929L233.019 238.63C230.519 196.151 249.39 146.78 249.39 146.78C249.39 146.78 263.211 148.615 270.725 145.56C267.56 152.839 257.737 179.911 258.643 233.813Z" fill="white"/>
<path d="M258.483 233.506L258.643 233.813L261.26 238.959L258.76 238.929" stroke="white" stroke-miterlimit="10"/>
<path d="M218.678 241.38C220.132 237.378 219.23 232.836 217.516 228.946C215.802 225.057 213.324 221.581 211.435 217.779C207.205 209.264 206.094 199.136 208.373 189.856C210.652 180.576 216.301 172.227 223.947 166.838" stroke="white" stroke-miterlimit="10"/>
<path d="M278.077 78.0979C283.436 78.0979 287.781 73.753 287.781 68.3933C287.781 63.0336 283.436 58.6887 278.077 58.6887C272.717 58.6887 268.372 63.0336 268.372 68.3933C268.372 73.753 272.717 78.0979 278.077 78.0979Z" fill="url(#paint8_linear_1942_749)"/>
<path d="M103.008 234.348C93.4932 220.318 98.1481 199.418 109.064 186.642C119.979 173.866 135.533 167.235 150.489 160.877C165.445 154.518 180.948 147.591 191.495 134.456C203.223 119.851 206.9 100.118 209.021 80.6165" stroke="white" stroke-miterlimit="10"/>
<path d="M42.312 234.212H394.11C415.522 234.212 432.906 251.596 432.906 273.008C432.906 294.421 415.522 311.804 394.11 311.804H42.312V234.212Z" fill="black" stroke="white" stroke-miterlimit="10"/>
<g opacity="0.39">
<path d="M160.879 288.973C159.625 288.973 158.581 288.266 158.581 287.383V263.073C158.581 262.189 159.601 261.483 160.879 261.483C162.157 261.483 163.177 262.189 163.177 263.073V287.383C163.177 288.267 162.157 288.973 160.879 288.973Z" fill="white"/>
<path d="M149.458 285.173C148.181 285.173 147.16 284.467 147.16 283.584V266.871C147.16 265.989 148.18 265.282 149.458 265.282C150.735 265.282 151.755 265.989 151.755 266.871V283.584C151.755 284.453 150.732 285.173 149.458 285.173Z" fill="white"/>
<path d="M172.301 285.173C171.024 285.173 170.003 284.467 170.003 283.584V266.871C170.003 265.989 171.024 265.282 172.301 265.282C173.579 265.282 174.599 265.989 174.599 266.871V283.584C174.599 284.453 173.579 285.173 172.301 285.173Z" fill="white"/>
<path d="M183.723 281.759C182.446 281.759 181.425 281.052 181.425 280.168V270.288C181.425 269.405 182.445 268.697 183.723 268.697C185 268.697 186.021 269.405 186.021 270.288V280.168C186.021 281.053 185 281.759 183.723 281.759Z" fill="white"/>
<path d="M366.493 288.973C365.216 288.973 364.195 288.266 364.195 287.383V263.073C364.195 262.189 365.215 261.483 366.493 261.483C367.771 261.483 368.788 262.189 368.788 263.073V287.383C368.788 288.267 367.768 288.973 366.493 288.973Z" fill="white"/>
<path d="M355.071 285.173C353.794 285.173 352.773 284.467 352.773 283.584V266.871C352.773 265.989 353.793 265.282 355.071 265.282C356.348 265.282 357.366 265.989 357.366 266.871V283.584C357.366 284.453 356.345 285.173 355.071 285.173Z" fill="white"/>
<path d="M377.914 285.173C376.658 285.173 375.616 284.467 375.616 283.584V266.871C375.616 265.989 376.637 265.282 377.914 265.282C379.192 265.282 380.212 265.989 380.212 266.871V283.584C380.212 284.453 379.189 285.173 377.914 285.173Z" fill="white"/>
<path d="M389.336 281.759C388.06 281.759 387.039 281.052 387.039 280.168V270.288C387.039 269.405 388.059 268.697 389.336 268.697C390.614 268.697 391.634 269.405 391.634 270.288V280.168C391.634 281.053 390.611 281.759 389.336 281.759Z" fill="white"/>
<path d="M195.145 284.864C193.868 284.864 192.847 284.158 192.847 283.275V267.196C192.847 266.312 193.867 265.606 195.145 265.606C196.422 265.606 197.443 266.312 197.443 267.196V283.275C197.443 284.158 196.422 284.864 195.145 284.864Z" fill="white"/>
<path d="M206.566 288.385C205.289 288.385 204.268 287.678 204.268 286.794V263.676C204.268 262.794 205.289 262.086 206.566 262.086C207.844 262.086 208.864 262.794 208.864 263.676V286.794C208.864 287.679 207.844 288.385 206.566 288.385Z" fill="white"/>
<path d="M217.988 292.596C216.733 292.596 215.69 291.889 215.69 291.005V259.481C215.69 258.597 216.71 257.891 217.988 257.891C219.265 257.891 220.285 258.597 220.285 259.481V291.005C220.285 291.873 219.265 292.596 217.988 292.596Z" fill="white"/>
<path d="M229.41 288.56C228.133 288.56 227.112 287.853 227.112 286.97V263.5C227.112 262.632 228.132 261.909 229.41 261.909C230.687 261.909 231.708 262.616 231.708 263.5V286.97C231.708 287.854 230.687 288.56 229.41 288.56Z" fill="white"/>
<path d="M240.831 284.776C239.554 284.776 238.533 284.07 238.533 283.186V267.284C238.533 266.416 239.553 265.694 240.831 265.694C242.109 265.694 243.129 266.401 243.129 267.284V283.186C243.129 284.056 242.109 284.776 240.831 284.776Z" fill="white"/>
<path d="M252.253 282.759C250.976 282.759 249.955 282.052 249.955 281.169V269.316C249.955 268.432 250.976 267.726 252.253 267.726C253.531 267.726 254.551 268.433 254.551 269.316V281.169C254.551 282.053 253.531 282.759 252.253 282.759Z" fill="white"/>
<path d="M263.675 288.812C262.4 288.812 261.377 288.105 261.377 287.221V263.235C261.377 262.351 262.4 261.645 263.675 261.645C264.949 261.645 265.972 262.352 265.972 263.235V287.221C265.972 288.106 264.952 288.812 263.675 288.812Z" fill="white"/>
<path d="M309.361 288.812C308.086 288.812 307.063 288.105 307.063 287.221V263.235C307.063 262.351 308.086 261.645 309.361 261.645C310.636 261.645 311.659 262.352 311.659 263.235V287.221C311.659 288.106 310.639 288.812 309.361 288.812Z" fill="white"/>
<path d="M275.096 292.596C273.819 292.596 272.798 291.889 272.798 291.005V259.481C272.798 258.597 273.818 257.891 275.096 257.891C276.374 257.891 277.394 258.597 277.394 259.481V291.005C277.394 291.873 276.374 292.596 275.096 292.596Z" fill="white"/>
<path d="M286.518 298.972C285.242 298.972 284.22 298.263 284.22 297.381V253.089C284.22 252.207 285.241 251.5 286.518 251.5C287.796 251.5 288.816 252.207 288.816 253.089V297.381C288.816 298.263 287.796 298.972 286.518 298.972Z" fill="white"/>
<path d="M297.939 292.596C296.685 292.596 295.642 291.889 295.642 291.005V259.481C295.642 258.597 296.662 257.891 297.939 257.891C299.217 257.891 300.237 258.597 300.237 259.481V291.005C300.237 291.873 299.217 292.596 297.939 292.596Z" fill="white"/>
<path d="M320.806 282.759C319.549 282.759 318.508 282.052 318.508 281.169V269.316C318.508 268.432 319.528 267.726 320.806 267.726C322.083 267.726 323.101 268.433 323.101 269.316V281.169C323.101 282.053 322.08 282.759 320.806 282.759Z" fill="white"/>
<path d="M343.649 282.759C342.373 282.759 341.352 282.052 341.352 281.169V269.316C341.352 268.432 342.372 267.726 343.649 267.726C344.927 267.726 345.944 268.433 345.944 269.316V281.169C345.944 282.053 344.924 282.759 343.649 282.759Z" fill="white"/>
<path d="M332.205 280.771C330.928 280.771 329.907 280.065 329.907 279.181V271.29C329.907 270.405 330.927 269.699 332.205 269.699C333.482 269.699 334.503 270.406 334.503 271.29V279.181C334.503 280.065 333.482 280.771 332.205 280.771Z" fill="white"/>
<path d="M138.036 282.759C136.76 282.759 135.738 282.052 135.738 281.169V269.316C135.738 268.432 136.759 267.726 138.036 267.726C139.313 267.726 140.334 268.433 140.334 269.316V281.169C140.334 282.053 139.314 282.759 138.036 282.759Z" fill="white"/>
</g>
<path d="M363.838 198.183L363.794 198.198" stroke="white" stroke-miterlimit="10"/>
<path d="M234.878 252.388C229.492 255.472 226.714 261.567 225.391 267.619C224.3 272.617 225.029 277.978 227.34 282.537C228.389 284.606 230.367 286.121 232.681 286.287C234.314 286.404 234.929 285.83 236.738 284.186C239.384 287.402 242.995 286.831 246.291 284.287C247.906 286.107 251.392 286.546 253.746 285.925C256.092 285.303 258.014 283.286 258.526 280.911C258.847 279.398 258.628 277.812 258.833 276.277C259.03 274.735 259.834 273.09 261.325 272.659C291.232 290.953 328.434 292.831 360.505 278.696C380.312 272.813 391.224 249.637 380.743 229.983L363.794 198.198L311.266 218.472L311.178 218.509L316.682 232.22L316.762 232.512C293.717 238.688 279.136 242.092 255.353 240.126C247.248 239.453 244.47 238.99 236.788 241.658C228.039 244.705 221.513 252.372 217.727 260.829C214.734 267.513 213.221 274.723 212.036 281.974C211.274 286.639 217.164 289.363 220.192 285.734C220.244 285.672 220.296 285.609 220.348 285.545C223.379 281.805 225.679 265.758 225.679 265.758" fill="black"/>
<path d="M234.878 252.388C229.492 255.472 226.714 261.567 225.391 267.619C224.3 272.617 225.029 277.978 227.34 282.537C228.389 284.606 230.367 286.121 232.681 286.287C234.314 286.404 234.929 285.83 236.738 284.186C239.384 287.402 242.995 286.831 246.291 284.287C247.906 286.107 251.392 286.546 253.746 285.925C256.092 285.303 258.014 283.286 258.526 280.911C258.847 279.398 258.628 277.812 258.833 276.277C259.03 274.735 259.834 273.09 261.325 272.659C291.232 290.953 328.434 292.831 360.505 278.696C380.312 272.813 391.224 249.637 380.743 229.983L363.794 198.198L311.266 218.472L311.178 218.509L316.682 232.22L316.762 232.512C293.717 238.688 279.136 242.092 255.353 240.126C247.248 239.453 244.47 238.99 236.788 241.658C228.039 244.705 221.513 252.372 217.727 260.829C214.734 267.513 213.221 274.723 212.036 281.974C211.274 286.639 217.164 289.363 220.192 285.734C220.244 285.672 220.296 285.609 220.348 285.545C223.379 281.805 225.679 265.758 225.679 265.758" stroke="white" stroke-miterlimit="10"/>
<path d="M360.631 278.645C360.587 278.667 360.55 278.682 360.506 278.697" stroke="white" stroke-miterlimit="10"/>
<path d="M319.869 231.657C318.838 231.95 317.801 232.235 316.763 232.512" stroke="white" stroke-miterlimit="10"/>
<path d="M246.468 284.212C244.471 278.974 246.289 272.528 250.729 269.106" stroke="white" stroke-miterlimit="10"/>
<path d="M236.738 284.186C233.827 278.528 234.819 269.9 239.851 266.005" stroke="white" stroke-miterlimit="10"/>
<path d="M170.997 234.242H218.063" stroke="white" stroke-miterlimit="10"/>
<path d="M277.042 208.817L268.068 208.945L267.578 174.742C267.42 163.729 277.121 154.661 289.245 154.487C301.37 154.313 311.326 163.1 311.484 174.112L311.975 208.315L302.681 208.448" stroke="white" stroke-miterlimit="10"/>
<path d="M290.735 153.887V135.173" stroke="white" stroke-miterlimit="10"/>
<path d="M220.633 81.6126C224.492 82.4882 228.677 81.8246 232.075 79.7971" stroke="white" stroke-miterlimit="10"/>
<path d="M225.22 59.0528C229.028 61.9799 234.831 61.9361 238.594 58.9526" stroke="white" stroke-miterlimit="10"/>
<path d="M55.8434 325.892C86.4088 325.892 111.187 301.114 111.187 270.549C111.187 239.983 86.4088 215.205 55.8434 215.205C25.2781 215.205 0.5 239.983 0.5 270.549C0.5 301.114 25.2781 325.892 55.8434 325.892Z" fill="black" stroke="white" stroke-miterlimit="10"/>
<path d="M277.855 211.666C279.299 211.666 280.469 210.496 280.469 209.052C280.469 207.609 279.299 206.438 277.855 206.438C276.412 206.438 275.242 207.609 275.242 209.052C275.242 210.496 276.412 211.666 277.855 211.666Z" fill="white"/>
<path d="M301.381 211.666C302.825 211.666 303.995 210.496 303.995 209.052C303.995 207.609 302.825 206.438 301.381 206.438C299.938 206.438 298.768 207.609 298.768 209.052C298.768 210.496 299.938 211.666 301.381 211.666Z" fill="white"/>
<path d="M242.302 168.545H211.474V176.689H242.302V168.545Z" fill="black" stroke="white" stroke-miterlimit="10"/>
<path d="M83.8727 262.309V279.43H64.4036V298.899H47.2835V279.43H27.8145V262.309H47.2835V242.84H64.4036V262.309H83.8727Z" fill="url(#paint9_linear_1942_749)" stroke="white" stroke-miterlimit="10"/>
<defs>
<linearGradient id="paint0_linear_1942_749" x1="235.349" y1="-119.305" x2="214.365" y2="610.471" gradientUnits="userSpaceOnUse">
<stop offset="0.073" stop-color="#5E5F75"/>
<stop offset="0.12" stop-color="#393947" stop-opacity="0.37"/>
<stop offset="0.26" stop-opacity="0"/>
<stop offset="0.29" stop-color="#050507" stop-opacity="0"/>
<stop offset="0.58" stop-color="#124BF1"/>
</linearGradient>
<linearGradient id="paint1_linear_1942_749" x1="233.831" y1="-112.529" x2="217.513" y2="597.299" gradientUnits="userSpaceOnUse">
<stop offset="0.15" stop-color="#5E5F75"/>
<stop offset="0.2" stop-color="#393947" stop-opacity="0.37"/>
<stop offset="0.26" stop-opacity="0"/>
<stop offset="0.29" stop-color="#050507" stop-opacity="0"/>
<stop offset="0.33" stop-color="#14141D" stop-opacity="0.02"/>
<stop offset="0.39" stop-color="#2C2D40" stop-opacity="0.08"/>
<stop offset="0.46" stop-color="#4F5070" stop-opacity="0.25"/>
<stop offset="0.53" stop-color="#7A7CAD" stop-opacity="0.6"/>
<stop offset="0.58" stop-color="#9EA1E1"/>
</linearGradient>
<linearGradient id="paint2_linear_1942_749" x1="219.29" y1="118.525" x2="248.952" y2="118.525" gradientUnits="userSpaceOnUse">
<stop offset="0.003" stop-color="#214CEA"/>
<stop offset="1" stop-color="#6152BE"/>
</linearGradient>
<linearGradient id="paint3_linear_1942_749" x1="138.434" y1="92.8427" x2="329.94" y2="288.476" gradientUnits="userSpaceOnUse">
<stop offset="0.135" stop-color="#214CEA"/>
<stop offset="1" stop-color="#6152BE"/>
</linearGradient>
<linearGradient id="paint4_linear_1942_749" x1="31.9899" y1="181.32" x2="182.217" y2="82.9375" gradientUnits="userSpaceOnUse">
<stop offset="0.12" stop-color="#FCC4D3"/>
<stop offset="0.14" stop-color="#E6B7D5"/>
<stop offset="0.2" stop-color="#9F8DDC"/>
<stop offset="0.25" stop-color="#676CE2"/>
<stop offset="0.29" stop-color="#3E54E7"/>
<stop offset="0.32" stop-color="#2646EA"/>
<stop offset="0.34" stop-color="#1D41EB"/>
<stop offset="0.36" stop-color="#1B31C7"/>
<stop offset="0.38" stop-color="#1923A5"/>
<stop offset="0.4" stop-color="#171789"/>
<stop offset="0.42" stop-color="#160E74"/>
<stop offset="0.45" stop-color="#150764"/>
<stop offset="0.47" stop-color="#15045B"/>
<stop offset="0.51" stop-color="#150359"/>
<stop offset="0.69" stop-color="white" stop-opacity="0.5"/>
</linearGradient>
<linearGradient id="paint5_linear_1942_749" x1="134.116" y1="120.058" x2="26.9263" y2="175.907" gradientUnits="userSpaceOnUse">
<stop offset="0.12" stop-color="#FCC4D3"/>
<stop offset="0.14" stop-color="#E6B7D5"/>
<stop offset="0.2" stop-color="#9F8DDC"/>
<stop offset="0.25" stop-color="#676CE2"/>
<stop offset="0.29" stop-color="#3E54E7"/>
<stop offset="0.32" stop-color="#2646EA"/>
<stop offset="0.34" stop-color="#1D41EB"/>
<stop offset="0.36" stop-color="#1B31C7"/>
<stop offset="0.38" stop-color="#1923A5"/>
<stop offset="0.4" stop-color="#171789"/>
<stop offset="0.42" stop-color="#160E74"/>
<stop offset="0.45" stop-color="#150764"/>
<stop offset="0.47" stop-color="#15045B"/>
<stop offset="0.51" stop-color="#150359"/>
<stop offset="0.69" stop-color="white" stop-opacity="0.5"/>
</linearGradient>
<linearGradient id="paint6_linear_1942_749" x1="205.947" y1="41.5672" x2="232.844" y2="41.5672" gradientUnits="userSpaceOnUse">
<stop offset="0.003" stop-color="#214CEA"/>
<stop offset="1" stop-color="#6152BE"/>
</linearGradient>
<linearGradient id="paint7_linear_1942_749" x1="231.323" y1="81.916" x2="331.745" y2="81.916" gradientUnits="userSpaceOnUse">
<stop offset="0.003" stop-color="#214CEA"/>
<stop offset="1" stop-color="#6152BE"/>
</linearGradient>
<linearGradient id="paint8_linear_1942_749" x1="268.373" y1="68.3933" x2="287.781" y2="68.3933" gradientUnits="userSpaceOnUse">
<stop offset="0.003" stop-color="#214CEA"/>
<stop offset="1" stop-color="#6152BE"/>
</linearGradient>
<linearGradient id="paint9_linear_1942_749" x1="84.3149" y1="348.983" x2="36.6654" y2="218.252" gradientUnits="userSpaceOnUse">
<stop offset="0.003" stop-color="#214CEA"/>
<stop offset="0.203" stop-color="#2561DE"/>
<stop offset="0.615" stop-color="#2F97BF"/>
<stop offset="0.946" stop-color="#39C7A5"/>
</linearGradient>
</defs>
</svg>
