<svg width="620" height="336" viewBox="0 0 620 336" fill="none" xmlns="http://www.w3.org/2000/svg">
<path d="M177.443 251.166C177.443 151.751 258.035 71.1609 357.448 71.1609C456.862 71.1609 537.453 151.752 537.453 251.166C537.453 273.391 533.425 294.676 526.059 314.33L177.443 251.166Z" fill="url(#paint0_linear_1871_1210)"/>
<path d="M458.465 34.855L473.418 0L466.187 37.2317C466.474 42.3586 468.986 47.105 473.065 50.2246L500.687 62.9515L470.689 57.9469C465.562 58.2334 460.816 60.746 457.696 64.8246L443.734 96.4614L449.974 62.4486C449.687 57.3217 447.175 52.5753 443.096 49.4558L418.686 37.7172L445.472 41.7335C450.599 41.4469 455.345 38.9344 458.465 34.8558V34.855Z" fill="url(#paint1_radial_1871_1210)"/>
<path d="M197.938 328.521C185.657 301.947 178.806 272.349 178.806 241.151C178.806 125.996 272.158 32.644 387.313 32.644C472.512 32.644 545.777 83.7448 578.128 156.97" stroke="white" stroke-miterlimit="10"/>
<path d="M177.443 251.166C177.443 151.751 258.035 71.1609 357.448 71.1609C456.862 71.1609 537.453 151.752 537.453 251.166C537.453 273.391 533.425 294.676 526.059 314.33" stroke="white" stroke-miterlimit="10"/>
<path d="M177.443 251.367C177.443 173.182 240.825 109.799 319.011 109.799C390.154 109.799 449.039 162.277 459.071 230.633" stroke="white" stroke-miterlimit="10"/>
<path d="M315.21 333.346L235.706 333.946L226.699 309.128L224.149 298.835L238.074 241.212C243.449 218.944 260.705 201.483 282.909 195.839L300.504 191.364H300.528C300.544 191.458 300.559 191.553 300.575 191.648L304.317 227.864L315.21 333.346Z" fill="url(#paint2_linear_1871_1210)" stroke="white" stroke-miterlimit="10"/>
<path d="M348.229 179.231L304.317 227.864L300.575 191.648C300.559 191.553 300.543 191.458 300.528 191.364C299.17 182.799 293.692 175.442 285.869 171.669L272.647 165.307C269.372 163.728 267.698 160.042 268.653 156.537L275.142 132.904L266.996 127.662C266.996 127.662 270.587 125.326 281.646 113.099C281.646 113.099 281.788 112.775 282.072 112.207C283.414 109.539 287.898 101.542 295.223 97.3826C297.189 108.094 305.035 117.551 315.202 121.45L315.604 121.805C312.479 125.531 310.592 130.338 310.592 135.588C310.592 147.444 320.206 157.058 332.063 157.058C333.041 157.058 333.996 156.995 334.936 156.861L334.959 157.058L348.229 179.231Z" fill="black" stroke="white" stroke-miterlimit="10"/>
<path d="M302.383 94.9277C299.754 95.2593 297.37 96.1512 295.223 97.3826" stroke="white" stroke-miterlimit="10"/>
<path d="M281.495 122.345C283.144 124.155 285.546 125.256 287.994 125.323C290.442 125.391 292.901 124.422 294.647 122.705" stroke="white" stroke-miterlimit="10"/>
<path d="M295.223 97.3828C295.2 97.288 295.184 97.1852 295.168 97.0903" stroke="white" stroke-miterlimit="10"/>
<path d="M353.533 135.588C353.533 146.465 345.442 155.464 334.936 156.861C333.996 156.995 333.041 157.058 332.062 157.058C320.206 157.058 310.592 147.444 310.592 135.588C310.592 130.338 312.478 125.531 315.604 121.805C319.543 117.101 325.455 114.117 332.062 114.117C343.926 114.117 353.533 123.731 353.533 135.588Z" fill="url(#paint3_linear_1871_1210)" stroke="white" stroke-miterlimit="10"/>
<path d="M348.229 179.231L334.96 157.058L334.936 156.861C345.442 155.464 353.533 146.465 353.533 135.587C353.533 123.731 343.927 114.117 332.063 114.117C325.456 114.117 319.543 117.101 315.604 121.805L315.202 121.45C305.035 117.551 297.189 108.094 295.223 97.3825C287.898 101.542 283.414 109.539 282.072 112.207L281.536 111.915C274.976 110.21 270.674 103.524 269.672 96.822C268.669 90.1204 270.295 83.324 271.906 76.7407C282.325 82.3768 294.631 82.9214 306.44 83.8923C318.241 84.8711 330.689 86.6788 339.885 94.1461C350.076 102.426 368.736 111.536 348.229 179.231Z" fill="black" stroke="white" stroke-miterlimit="10"/>
<path d="M319.511 292.863V277.41C319.511 273.636 322.571 270.575 326.346 270.575C330.121 270.575 333.181 273.636 333.181 277.41V279.178" stroke="white" stroke-miterlimit="10"/>
<path d="M320.767 293.112H276.034" stroke="white" stroke-miterlimit="10"/>
<path d="M451.287 334.104C406.539 332.691 333.104 333.946 333.104 333.946V279.18H368.247L348.442 179.231L348.426 179.184L363.345 175.387C387.041 169.364 411.709 180.849 422.342 202.872L472.569 301.345C480.028 316.793 468.432 334.648 451.287 334.104Z" fill="url(#paint4_linear_1871_1210)" stroke="white" stroke-miterlimit="10"/>
<path d="M411.038 279.18H368.247" stroke="white" stroke-miterlimit="10"/>
<path d="M348.426 179.184L348.229 179.231" stroke="white" stroke-miterlimit="10"/>
<path d="M304.317 227.864L303.977 228.235" stroke="white" stroke-miterlimit="10"/>
<path d="M332.312 147.751C339.031 147.751 344.478 142.304 344.478 135.585C344.478 128.866 339.031 123.42 332.312 123.42C325.593 123.42 320.146 128.866 320.146 135.585C320.146 142.304 325.593 147.751 332.312 147.751Z" fill="black" stroke="#231F20" stroke-miterlimit="10"/>
<path d="M306.437 83.893L320.935 85.8365C326.066 86.0843 329.883 90.6721 329.194 95.7619L326.347 114.887C326.347 114.887 336.73 111.731 345.266 118.658L350.072 92.4529C350.934 87.7491 347.775 83.2505 343.057 82.4667L316.02 77.9705C311.793 77.268 307.698 79.7986 306.437 83.8938" fill="url(#paint5_linear_1871_1210)"/>
<path d="M306.437 83.893L320.935 85.8365C326.066 86.0843 329.883 90.6721 329.194 95.7619L326.347 114.887C326.347 114.887 336.73 111.731 345.266 118.658L350.072 92.4529C350.934 87.7491 347.775 83.2505 343.057 82.4667L316.02 77.9705C311.793 77.268 307.698 79.7986 306.437 83.8938" stroke="white" stroke-miterlimit="10"/>
<path d="M333.507 292.639L333.183 327.812C328.968 331.223 323.782 333.078 318.438 333.078H277.155C272.45 333.078 268.014 330.804 265.141 326.936L263.262 324.402C260.752 324.418 258.707 322.413 258.676 319.911L258.668 319.264C258.636 316.746 260.641 314.685 263.159 314.654L288.363 314.33H258.234C256.797 314.33 255.495 313.746 254.555 312.807C253.616 311.867 253.032 310.565 253.032 309.128C253.032 306.697 254.697 304.661 256.947 304.092L256.9 303.926C256.852 303.871 256.805 303.816 256.758 303.761C253.221 299.545 256.315 293.112 261.817 293.112H276.034V292.86L282.293 279.219C283.588 279.654 293.123 282.906 293.123 282.906C293.123 282.906 325.487 282.906 333.507 292.639Z" fill="black" stroke="white" stroke-miterlimit="10"/>
<path d="M263.262 324.402L263.223 324.347H294.544" stroke="white" stroke-miterlimit="10"/>
<path d="M297.583 314.212L288.364 314.33" stroke="white" stroke-miterlimit="10"/>
<path d="M263.287 324.402H263.262" stroke="white" stroke-miterlimit="10"/>
<path d="M293.779 314.33H288.364" stroke="white" stroke-miterlimit="10"/>
<path d="M294.647 303.927H258.233C257.791 303.927 257.357 303.982 256.947 304.092" stroke="white" stroke-miterlimit="10"/>
<path d="M271.979 145.599C275.581 146.954 279.983 145.784 282.436 142.818" stroke="white" stroke-miterlimit="10"/>
<path d="M306.398 244.569L350.844 195.762" stroke="white" stroke-miterlimit="10"/>
<path d="M401.556 279.178L389.791 236.772" stroke="white" stroke-miterlimit="10"/>
<path d="M334.959 157.058C338.14 171.53 329.739 184.194 319.705 195.097C309.671 205.999 297.24 214.591 287.887 226.083C278.533 237.575 272.534 253.609 278.286 267.265" stroke="white" stroke-miterlimit="10"/>
<path d="M283.891 170.503C285.236 179.631 279.222 186.453 275.534 194.91C267.254 213.898 266.775 234.022 276.379 252.373" stroke="white" stroke-miterlimit="10"/>
<path d="M223.865 226.656L223.857 226.64" stroke="white" stroke-miterlimit="10"/>
<path d="M249.782 333.946H249.774L140.582 264.79L196.035 226.64L207.859 218.502L249.782 333.946Z" fill="black" stroke="white" stroke-miterlimit="10"/>
<path d="M84.7505 266.369L44.8721 334.119L0.959961 220.167L27.6009 234.857L84.7505 266.369Z" fill="black" stroke="white" stroke-miterlimit="10"/>
<path d="M27.6009 234.857L0.959961 220.167L17.0708 206.275L27.6009 234.857Z" stroke="white" stroke-miterlimit="10"/>
<path d="M249.774 333.946L44.8721 334.119L84.7505 266.369C90.8286 256.028 102.401 249.91 114.304 251.379C117.501 251.773 120.666 252.673 123.69 254.094L140.582 264.79L249.774 333.946Z" fill="black" stroke="white" stroke-miterlimit="10"/>
<path d="M139.35 184.615H42.1802L57.6279 171.29C70.7945 161.518 88.263 159.75 103.127 166.696L139.35 184.615Z" stroke="white" stroke-miterlimit="10"/>
<path d="M207.859 218.502L188.196 208.777" stroke="white" stroke-miterlimit="10"/>
<path d="M196.034 226.64L140.582 264.79L123.69 254.094C120.666 252.673 117.501 251.773 114.304 251.379C102.401 249.91 90.8286 256.028 84.7505 266.369L27.6008 234.857L17.0708 206.275L9.09033 184.615H177.587L188.196 208.777L196.034 226.64Z" fill="url(#paint6_linear_1871_1210)" stroke="white" stroke-miterlimit="10"/>
<path d="M259.24 293.078C259.24 292.563 256.401 283.695 254.102 276.597C252.687 272.229 255.942 267.752 260.533 267.752H288.807C291.936 267.752 294.654 269.892 295.381 272.936C297.153 280.354 300.139 293.109 299.715 293.109C299.117 293.109 259.24 293.078 259.24 293.078Z" fill="black" stroke="white" stroke-miterlimit="10"/>
<path d="M486.162 132.918C490.354 132.918 493.753 129.519 493.753 125.327C493.753 121.134 490.354 117.735 486.162 117.735C481.969 117.735 478.57 121.134 478.57 125.327C478.57 129.519 481.969 132.918 486.162 132.918Z" fill="#FFF6DF" stroke="white" stroke-miterlimit="10"/>
<path d="M98.6763 207.105L103.988 234.858" stroke="white" stroke-miterlimit="10"/>
<path d="M115.461 220.981H87.2041" stroke="white" stroke-miterlimit="10"/>
<path d="M577.181 149.975L568.145 159.432" stroke="black" stroke-miterlimit="10"/>
<path d="M613.705 179.696C611.286 182.119 608.343 183.704 605.238 184.451C602.23 185.177 599.072 185.111 596.088 184.261C593.251 183.454 590.573 181.932 588.338 179.696L586.94 178.298L577.124 168.482L576.916 168.274L577.124 168.047L586.94 157.416L601.267 141.892L613.705 154.33C620.712 161.336 620.712 172.694 613.705 179.698V179.696Z" fill="white" stroke="black" stroke-miterlimit="10"/>
<path d="M597.736 138.36L573.378 164.738L560.941 152.301C553.936 145.296 553.936 133.938 560.941 126.934C564.444 123.434 569.035 121.683 573.626 121.683C578.217 121.683 582.806 123.434 586.309 126.934L597.736 138.361V138.36Z" fill="white" stroke="black" stroke-miterlimit="10"/>
<path d="M604.357 138.55L601.269 141.892L576.914 168.272L573.96 171.468C573.467 172.003 572.798 172.274 572.124 172.274C571.52 172.274 570.912 172.056 570.431 171.612C569.418 170.675 569.354 169.096 570.291 168.083L573.379 164.738L597.737 138.36L600.688 135.16C601.622 134.148 603.204 134.084 604.214 135.02C605.23 135.954 605.291 137.535 604.357 138.549V138.55Z" fill="black"/>
<path d="M605.239 184.45V196.743C605.239 199.024 603.39 200.873 601.109 200.873H580.66C578.706 200.873 577.125 199.291 577.125 197.338V152.13C577.125 150.548 578.41 149.27 579.991 149.27H584.069C585.651 149.27 586.936 150.548 586.936 152.13V192.866H596.087V184.264C599.073 185.111 602.23 185.177 605.238 184.45H605.239Z" fill="white" stroke="black" stroke-miterlimit="10"/>
<path d="M596.089 200.871H586.939V210.021H596.089V200.871Z" fill="white" stroke="black" stroke-miterlimit="10"/>
<path d="M617.686 215.498V218.795H563.518V215.498C563.518 212.473 565.969 210.022 568.993 210.022H612.21C615.234 210.022 617.686 212.473 617.686 215.498Z" fill="black"/>
<path d="M617.686 218.795H563.518V228.781H617.686V218.795Z" fill="white" stroke="black" stroke-miterlimit="10"/>
<path d="M580.426 123.016L572.237 131.611" stroke="black" stroke-miterlimit="10"/>
<path d="M587.373 127.999L578.337 137.455" stroke="black" stroke-miterlimit="10"/>
<path d="M593.348 133.808L584.312 143.265" stroke="black" stroke-miterlimit="10"/>
<path d="M564.679 138.742L557.331 146.455" stroke="black" stroke-miterlimit="10"/>
<path d="M571.206 144.166L562.17 153.622" stroke="black" stroke-miterlimit="10"/>
<path d="M534.763 323.042C551.292 323.042 564.692 309.642 564.692 293.112C564.692 276.583 551.292 263.183 534.763 263.183C518.233 263.183 504.833 276.583 504.833 293.112C504.833 309.642 518.233 323.042 534.763 323.042Z" fill="black" stroke="white" stroke-miterlimit="10"/>
<path d="M535.284 277.889V308.335" stroke="white" stroke-miterlimit="10"/>
<path d="M550.507 293.112H520.061" stroke="white" stroke-miterlimit="10"/>
<defs>
<linearGradient id="paint0_linear_1871_1210" x1="377.076" y1="-39.3187" x2="350.331" y2="356.512" gradientUnits="userSpaceOnUse">
<stop offset="0.003" stop-color="#214CEA"/>
<stop offset="0.688" stop-color="#1E1841" stop-opacity="0"/>
</linearGradient>
<radialGradient id="paint1_radial_1871_1210" cx="0" cy="0" r="1" gradientUnits="userSpaceOnUse" gradientTransform="translate(458.577 48.233) rotate(-27.895) scale(126.412 126.412)">
<stop offset="0.03" stop-color="white"/>
<stop offset="0.052" stop-color="#D4D3D9"/>
<stop offset="0.077" stop-color="#ACAAB5"/>
<stop offset="0.105" stop-color="#888594"/>
<stop offset="0.135" stop-color="#686477"/>
<stop offset="0.169" stop-color="#4D4960"/>
<stop offset="0.206" stop-color="#38334C"/>
<stop offset="0.251" stop-color="#27223D"/>
<stop offset="0.305" stop-color="#1C1633"/>
<stop offset="0.382" stop-color="#150F2D"/>
<stop offset="0.594" stop-color="#140E2C"/>
</radialGradient>
<linearGradient id="paint2_linear_1871_1210" x1="192.723" y1="118.978" x2="332.041" y2="384.472" gradientUnits="userSpaceOnUse">
<stop offset="0.003" stop-color="#214CEA"/>
<stop offset="1" stop-color="#6152BE"/>
</linearGradient>
<linearGradient id="paint3_linear_1871_1210" x1="310.592" y1="135.588" x2="353.533" y2="135.588" gradientUnits="userSpaceOnUse">
<stop offset="0.003" stop-color="#214CEA"/>
<stop offset="1" stop-color="#6152BE"/>
</linearGradient>
<linearGradient id="paint4_linear_1871_1210" x1="497.493" y1="157.283" x2="270.97" y2="401.162" gradientUnits="userSpaceOnUse">
<stop offset="0.003" stop-color="#214CEA"/>
<stop offset="1" stop-color="#6152BE"/>
</linearGradient>
<linearGradient id="paint5_linear_1871_1210" x1="306.437" y1="98.2547" x2="350.214" y2="98.2547" gradientUnits="userSpaceOnUse">
<stop offset="0.003" stop-color="#214CEA"/>
<stop offset="1" stop-color="#6152BE"/>
</linearGradient>
<linearGradient id="paint6_linear_1871_1210" x1="9.09033" y1="225.492" x2="196.034" y2="225.492" gradientUnits="userSpaceOnUse">
<stop offset="0.003" stop-color="#214CEA"/>
<stop offset="0.127" stop-color="#3658D9"/>
<stop offset="0.383" stop-color="#6C77B0"/>
<stop offset="0.747" stop-color="#C3A86E"/>
<stop offset="0.98" stop-color="#FFCA42"/>
</linearGradient>
</defs>
</svg>
