<svg width="82" height="82" viewBox="0 0 82 82" fill="none" xmlns="http://www.w3.org/2000/svg">
<path d="M71.5298 50.3409C71.6309 49.8093 71.217 49.3201 70.6761 49.3178C70.1351 49.3154 70.6667 49.3178 70.6667 49.3178C66.9256 47.735 61.4826 46.8107 56.8871 46.7754C56.0898 46.7683 55.6641 47.0035 55.2972 47.735C51.8282 54.6521 44.3304 57.9518 37.0537 55.8092C29.857 53.6901 25.3485 46.8765 26.0893 39.235C26.7384 32.5531 32.1125 26.8849 38.8459 25.7748C38.8506 25.7748 38.8553 25.7748 38.86 25.7748C39.6149 25.6501 40.0147 24.8176 39.6643 24.1378C38.319 21.5436 36.367 19.5751 33.9281 18.0134L34.0645 17.6559C35.9648 17.9663 37.9192 18.091 39.7537 18.6249C47.7312 20.9486 53.1005 26.0853 55.7535 33.9784C56.0662 34.9121 56.4355 35.2532 57.4468 35.2391C61.7813 35.1779 67.5019 33.3486 69.995 32.4982L70.6761 32.1948C71.3558 32.1948 71.1827 31.8702 71.0416 31.207C69.3952 20.2605 56.1838 8.70198 38.6836 10.172C22.8437 11.4985 10.0307 25.0198 10.4658 42.0668C10.8751 58.1847 24.2713 71.5226 40.5439 71.9413C57.6796 72.3834 69.3002 62.0936 71.5298 50.3409Z" fill="white"/>
</svg>
