<svg width="28" height="28" viewBox="0 0 28 28" fill="none" xmlns="http://www.w3.org/2000/svg">
<path d="M11.5 8.375C11.1548 8.375 10.875 8.65483 10.875 9C10.875 9.34517 11.1548 9.625 11.5 9.625H16.5C16.8452 9.625 17.125 9.34517 17.125 9C17.125 8.65483 16.8452 8.375 16.5 8.375H11.5Z" fill="#F6F6F6"/>
<path fill-rule="evenodd" clip-rule="evenodd" d="M13.9521 5.04199C12.2249 5.04198 10.8643 5.04197 9.80107 5.18647C8.70935 5.33483 7.83841 5.64589 7.15403 6.33769C6.47058 7.02855 6.1641 7.90618 6.01775 9.0065C5.87498 10.0799 5.87499 11.4542 5.875 13.2012V17.4495C5.87499 18.7058 5.87498 19.7005 5.95501 20.4493C6.03409 21.1894 6.20373 21.857 6.6882 22.3035C7.07688 22.6617 7.56843 22.8875 8.09304 22.9476C8.74927 23.0227 9.36199 22.7093 9.96557 22.2817C10.5764 21.8491 11.3173 21.1937 12.2521 20.3669L12.2825 20.34C12.7159 19.9567 13.0093 19.698 13.2542 19.519C13.4907 19.346 13.6352 19.2834 13.757 19.2589C13.9174 19.2266 14.0826 19.2266 14.243 19.2589C14.3647 19.2834 14.5093 19.346 14.7458 19.519C14.9907 19.698 15.2841 19.9567 15.7175 20.34L15.7479 20.367C16.6827 21.1937 17.4237 21.8492 18.0344 22.2817C18.638 22.7093 19.2508 23.0227 19.9069 22.9476C20.4316 22.8875 20.9231 22.6617 21.3118 22.3035C21.7963 21.857 21.9659 21.1894 22.045 20.4493C22.125 19.7005 22.125 18.7058 22.125 17.4495V13.2012C22.125 11.4542 22.125 10.0799 21.9822 9.0065C21.8359 7.90618 21.5294 7.02855 20.846 6.33769C20.1616 5.64589 19.2907 5.33483 18.1989 5.18647C17.1357 5.04197 15.7751 5.04198 14.0479 5.04199H13.9521ZM8.04267 7.2168C8.45664 6.79834 9.01876 6.55428 9.9694 6.42508C10.9387 6.29335 12.2144 6.29199 14 6.29199C15.7856 6.29199 17.0613 6.29335 18.0306 6.42508C18.9812 6.55428 19.5433 6.79834 19.9573 7.2168C20.3722 7.63618 20.6149 8.20715 20.7432 9.17131C20.8737 10.1528 20.875 11.4439 20.875 13.2482V17.4094C20.875 18.7147 20.8742 19.6422 20.8021 20.3165C20.7282 21.0077 20.592 21.267 20.4647 21.3843C20.2698 21.5639 20.0248 21.6759 19.7648 21.7057C19.5985 21.7247 19.3196 21.6603 18.7569 21.2617C18.2081 20.873 17.5176 20.2634 16.5456 19.4037L16.5238 19.3844C16.1177 19.0252 15.781 18.7274 15.4837 18.51C15.1728 18.2827 14.8593 18.108 14.4898 18.0335C14.1665 17.9684 13.8335 17.9684 13.5102 18.0335C13.1407 18.108 12.8272 18.2827 12.5163 18.51C12.219 18.7274 11.8823 19.0252 11.4762 19.3844L11.4544 19.4037C10.4824 20.2634 9.79188 20.873 9.24304 21.2617C8.68038 21.6603 8.40152 21.7247 8.23515 21.7057C7.97516 21.6759 7.73014 21.5639 7.53531 21.3843C7.40803 21.267 7.27178 21.0077 7.19793 20.3165C7.12587 19.6422 7.125 18.7147 7.125 17.4094V13.2482C7.125 11.4439 7.1263 10.1528 7.25684 9.17131C7.38508 8.20715 7.62778 7.63618 8.04267 7.2168Z" fill="#F6F6F6"/>
</svg>
