<svg width="20" height="20" viewBox="0 0 20 20" fill="none" xmlns="http://www.w3.org/2000/svg">
<path d="M10.0552 17.541L10.0659 17.5352L16.731 9.20508V9.2041C16.7408 9.19177 16.7467 9.1768 16.7485 9.16113C16.7503 9.14541 16.7476 9.1295 16.7407 9.11523C16.7339 9.10104 16.7238 9.08851 16.7104 9.08008C16.6971 9.07168 16.6813 9.06745 16.6655 9.06738H12.5835V2.48438C12.5835 2.46227 12.5747 2.44043 12.5591 2.4248C12.5435 2.4092 12.5216 2.40039 12.4995 2.40039H7.49951C7.47761 2.40049 7.45644 2.40935 7.44092 2.4248C7.42529 2.44043 7.4165 2.46227 7.4165 2.48438V9.06738H3.33447C3.31866 9.06742 3.30293 9.07165 3.28955 9.08008C3.2762 9.0885 3.26613 9.10102 3.25928 9.11523C3.25242 9.1295 3.24969 9.1454 3.25146 9.16113C3.25327 9.1768 3.25921 9.19177 3.26904 9.2041L3.26807 9.20508L9.93408 17.5352C9.93519 17.5361 9.9384 17.5382 9.94482 17.541C9.95686 17.5463 9.97584 17.5517 9.99951 17.5518C10.0234 17.5518 10.0431 17.5464 10.0552 17.541Z" stroke="#FAFAFA" stroke-width="1.5"/>
</svg>
