<svg width="36" height="36" viewBox="0 0 36 36" fill="none" xmlns="http://www.w3.org/2000/svg">
<path d="M31.0189 8.8623H4.43123C2.80643 8.8623 1.47705 10.1917 1.47705 11.8165V23.6332C1.47705 25.258 2.80643 26.5874 4.43123 26.5874H31.0189C32.6437 26.5874 33.9731 25.258 33.9731 23.6332V11.8165C33.9731 10.1917 32.6437 8.8623 31.0189 8.8623ZM14.7709 19.2019H11.8167V22.1561C11.8167 22.9685 11.152 23.6332 10.3396 23.6332C9.5272 23.6332 8.86251 22.9685 8.86251 22.1561V19.2019H5.90833C5.09593 19.2019 4.43123 18.5373 4.43123 17.7249C4.43123 16.9125 5.09593 16.2478 5.90833 16.2478H8.86251V13.2936C8.86251 12.4812 9.5272 11.8165 10.3396 11.8165C11.152 11.8165 11.8167 12.4812 11.8167 13.2936V16.2478H14.7709C15.5833 16.2478 16.248 16.9125 16.248 17.7249C16.248 18.5373 15.5833 19.2019 14.7709 19.2019ZM22.8949 22.1561C21.6689 22.1561 20.6792 21.1665 20.6792 19.9405C20.6792 18.7145 21.6689 17.7249 22.8949 17.7249C24.1209 17.7249 25.1105 18.7145 25.1105 19.9405C25.1105 21.1665 24.1209 22.1561 22.8949 22.1561ZM28.8032 17.7249C27.5773 17.7249 26.5876 16.7352 26.5876 15.5092C26.5876 14.2832 27.5773 13.2936 28.8032 13.2936C30.0292 13.2936 31.0189 14.2832 31.0189 15.5092C31.0189 16.7352 30.0292 17.7249 28.8032 17.7249Z" stroke="white" stroke-width="1.25"/>
</svg>
