<svg width="34" height="34" viewBox="0 0 34 34" fill="none" xmlns="http://www.w3.org/2000/svg">
<g clip-path="url(#clip0_890_14071)">
<path d="M15.1719 4.34247C16.2384 3.54282 17.705 3.54274 18.7715 4.34247L28.0859 11.3288C28.8412 11.8953 29.286 12.7841 29.2861 13.7282V27.6999C29.2861 29.3567 27.9429 30.6997 26.2861 30.6999H23.2148C21.558 30.6999 20.2148 29.3567 20.2148 27.6999V21.8005C20.2148 21.2483 19.7669 20.8007 19.2148 20.8005H14.7285C14.1763 20.8006 13.7285 21.2482 13.7285 21.8005V27.6999C13.7285 29.3567 12.3854 30.6999 10.7285 30.6999H7.65723C6.00037 30.6999 4.65723 29.3567 4.65723 27.6999V13.7282C4.65735 12.7841 5.10211 11.8953 5.85742 11.3288L15.1719 4.34247Z" stroke="white" stroke-width="2"/>
</g>
<defs>
<clipPath id="clip0_890_14071">
<rect width="33.943" height="33.943" fill="white"/>
</clipPath>
</defs>
</svg>
