<svg width="28" height="25" viewBox="0 0 28 25" fill="none" xmlns="http://www.w3.org/2000/svg">
<path d="M9.65332 20.3125C9.65225 21.2401 9.27553 22.1273 8.61035 22.7793C7.9457 23.4307 7.04693 23.7948 6.1123 23.7959H4.16602C3.23135 23.7949 2.33269 23.4307 1.66797 22.7793C1.00279 22.1273 0.62607 21.2401 0.625 20.3125V13.6396L0.628906 13.3184C0.669495 11.7096 1.01416 10.1215 1.64551 8.63477C2.31901 7.04888 3.30563 5.60952 4.54785 4.40039C5.79003 3.19132 7.26365 2.23556 8.88281 1.58789C10.5004 0.940895 12.2322 0.614599 13.9785 0.625977L14.0684 0.625V0.625977C15.8009 0.621471 17.5176 0.951351 19.1201 1.59863C20.722 2.24567 22.1785 3.19679 23.4062 4.39746L23.4092 4.40039C24.655 5.60634 25.6446 7.04377 26.3184 8.62988C26.9926 10.217 27.3369 11.9206 27.332 13.6406V20.3135C27.3309 21.2409 26.9542 22.1273 26.2891 22.7793C25.6243 23.4309 24.7258 23.7959 23.791 23.7969H21.8457C20.9108 23.7959 20.0115 23.4309 19.3467 22.7793C18.6817 22.1274 18.3049 21.2408 18.3037 20.3135V15.5459C18.3048 14.6183 18.6815 13.7311 19.3467 13.0791C20.0115 12.4275 20.9109 12.0635 21.8457 12.0625H24.0059C23.6416 9.86575 22.5295 7.84416 20.833 6.33789C18.9616 4.67642 16.5195 3.76345 13.9902 3.78223H13.9668C11.4375 3.76368 8.99531 4.67728 7.12402 6.33887C5.42778 7.84508 4.31554 9.86596 3.95117 12.0625H6.1123C7.04694 12.0636 7.9457 12.4277 8.61035 13.0791C9.27554 13.7311 9.65226 14.6183 9.65332 15.5459V20.3125Z" stroke="white" stroke-width="1.25"/>
</svg>
