<svg width="20" height="20" viewBox="0 0 20 20" fill="none" xmlns="http://www.w3.org/2000/svg">
<path d="M10.0552 2.45898L10.0659 2.46484L16.731 10.7949V10.7959C16.7408 10.8082 16.7467 10.8232 16.7485 10.8389C16.7503 10.8546 16.7476 10.8705 16.7407 10.8848C16.7339 10.899 16.7238 10.9115 16.7104 10.9199C16.6971 10.9283 16.6813 10.9325 16.6655 10.9326H12.5835V17.5156C12.5835 17.5377 12.5747 17.5596 12.5591 17.5752C12.5435 17.5908 12.5216 17.5996 12.4995 17.5996H7.49951C7.47761 17.5995 7.45644 17.5906 7.44092 17.5752C7.42529 17.5596 7.4165 17.5377 7.4165 17.5156V10.9326H3.33447C3.31866 10.9326 3.30293 10.9284 3.28955 10.9199C3.2762 10.9115 3.26613 10.899 3.25928 10.8848C3.25242 10.8705 3.24969 10.8546 3.25146 10.8389C3.25327 10.8232 3.25921 10.8082 3.26904 10.7959L3.26807 10.7949L9.93408 2.46484C9.93519 2.4639 9.9384 2.46182 9.94482 2.45898C9.95686 2.45368 9.97584 2.4483 9.99951 2.44824C10.0234 2.44824 10.0431 2.45364 10.0552 2.45898Z" stroke="#F6F6F6" stroke-width="1.5"/>
</svg>
