<svg width="32" height="33" viewBox="0 0 32 33" fill="none" xmlns="http://www.w3.org/2000/svg">
<g clip-path="url(#clip0_4398_4643)">
<path d="M25.811 19.4525C25.3247 19.4058 25.4058 19.4085 25.0527 19.392C24.8961 19.3851 24.7395 19.3893 24.5828 19.3865C24.1089 19.3796 23.8712 19.5239 23.6432 19.9539C21.9905 23.0601 19.3693 24.6647 15.8661 24.4545C12.3945 24.247 9.94909 22.3842 8.70442 19.1227C6.90062 14.3941 9.9903 9.12832 14.9882 8.3013H14.9951C15.3839 8.23535 15.6037 7.81497 15.4333 7.46053C14.9703 6.492 14.2505 5.65672 12.9302 4.44503C12.7887 4.31452 12.8986 4.0796 13.0896 4.10433C13.8919 4.21286 14.6997 4.30078 15.469 4.52471C19.6811 5.75014 22.5139 8.46478 23.9152 12.6301C24.0814 13.1233 24.2751 13.3033 24.8095 13.2951C24.848 13.2951 24.8865 13.2951 24.9249 13.2951C25.1873 13.28 25.37 13.2607 25.6173 13.2154L31.3997 11.9185C31.7417 11.8416 31.9464 11.4885 31.8379 11.1561C29.8074 4.93822 23.4508 -0.655903 14.9017 0.061222C6.5558 0.763236 -0.190954 7.87404 0.00412657 16.8326C0.18959 25.3722 7.26743 32.45 15.8853 32.6739C24.3383 32.8937 30.2896 26.9809 31.9767 21.0653C32.0742 20.7219 31.8434 20.3729 31.4903 20.3193L25.811 19.4538V19.4525Z" fill="white"/>
</g>
<defs>
<clipPath id="clip0_4398_4643">
<rect width="32" height="32.6814" fill="white"/>
</clipPath>
</defs>
</svg>